<svg width="173" height="234" viewBox="0 0 173 234" fill="none" xmlns="http://www.w3.org/2000/svg">
<path d="M71.6959 14.875C84.8762 22.8991 93.3598 42.432 85.3569 55.5775C77.354 68.723 58.6135 78.5878 45.4332 70.5636C32.2529 62.5395 22.4005 44.0784 30.4034 30.9328C38.4064 17.7873 58.5156 6.85083 71.6959 14.875Z" fill="#2489D3"/>
<path d="M111.948 91.9755C138.858 108.358 156.179 148.238 139.839 175.077C123.5 201.916 85.2379 222.057 58.3278 205.674C31.4177 189.291 11.3022 151.6 27.6417 124.761C43.9812 97.9216 85.0379 75.5927 111.948 91.9755Z" fill="#5B749A"/>
<path d="M152.34 162.323C146.924 176.852 135.36 190.198 121.507 198.546C107.653 206.896 91.6421 210.174 77.2901 204.824C62.7697 199.412 48.8239 188.362 39.8812 175.028C30.9383 161.693 27.0787 146.21 32.4324 131.847C37.8612 117.283 48.783 103.352 61.9707 94.4307C75.1579 85.5102 90.4813 81.676 104.805 87.0152C119.319 92.4253 133.941 104.057 143.56 117.989C153.186 131.931 157.683 147.988 152.34 162.323Z" stroke="black" stroke-opacity="0.6" stroke-width="2"/>
</svg>
