<svg width="47" height="48" viewBox="0 0 47 48" fill="none" xmlns="http://www.w3.org/2000/svg">
<rect x="0.857422" width="46" height="48" rx="10" fill="#E0EAFF"/>
<path d="M32.8574 14.5H14.8574C14.5813 14.5 14.3574 14.7239 14.3574 15V26H33.3574V15C33.3574 14.7239 33.1336 14.5 32.8574 14.5Z" stroke="#4883FF"/>
<path d="M35.3574 26.1176C35.6336 26.1176 35.8574 25.8938 35.8574 25.6176V14.5C35.8558 13.12 34.7374 12.0017 33.3574 12H14.3574C12.9774 12.0017 11.8591 13.12 11.8574 14.5V28.5C11.8591 29.88 12.9774 30.9983 14.3574 31H19.8574V33.2325L18.5799 34.0825C18.4404 34.1756 18.3569 34.3323 18.3574 34.5V35C18.3574 35.5523 18.8051 36 19.3574 36H28.3574C28.9097 36 29.3574 35.5523 29.3574 35V34.5C29.3574 34.3329 29.274 34.1768 29.1349 34.084L27.8574 33.2325V31.0882C27.8574 30.8121 27.6336 30.5882 27.3574 30.5882C27.0813 30.5882 26.8574 30.8121 26.8574 31.0882V33.5C26.8574 33.6671 26.9409 33.8232 27.0799 33.916L28.3574 34.7675V35H19.3574V34.7675L20.6349 33.9175C20.7744 33.8244 20.8579 33.6677 20.8574 33.5V31H33.3574C34.7374 30.9983 35.8558 29.88 35.8574 28.5V26C35.8574 25.7239 35.6336 25.5 35.3574 25.5H12.7398C12.4636 25.5 12.2398 25.7239 12.2398 26C12.2398 26.2761 12.4636 26.5 12.7398 26.5H34.8574V28.5C34.8574 29.3284 34.1859 30 33.3574 30H14.3574C13.529 30 12.8574 29.3284 12.8574 28.5V14.5C12.8574 13.6716 13.529 13 14.3574 13H33.3574C34.1859 13 34.8574 13.6716 34.8574 14.5V25.6176C34.8574 25.8938 35.0813 26.1176 35.3574 26.1176Z" fill="#4883FF" stroke="#4883FF" stroke-width="0.4"/>
<path d="M21.7108 16.3523C21.5156 16.1571 21.1991 16.1571 21.0038 16.3523L18.0038 19.3523C17.8086 19.5476 17.8086 19.8641 18.0038 20.0593L21.0038 23.0593C21.2 23.2488 21.5119 23.2461 21.7047 23.0532C21.8976 22.8604 21.9003 22.5485 21.7108 22.3523L19.0643 19.7058L21.7108 17.0593C21.906 16.8641 21.906 16.5476 21.7108 16.3523Z" fill="#4883FF"/>
<path d="M26.0042 23.0594C26.1995 23.2546 26.516 23.2546 26.7112 23.0594L29.7112 20.0594C29.9064 19.8641 29.9064 19.5476 29.7112 19.3524L26.7112 16.3524C26.5857 16.2224 26.3998 16.1703 26.225 16.216C26.0502 16.2618 25.9136 16.3983 25.8679 16.5731C25.8221 16.7479 25.8742 16.9338 26.0042 17.0594L28.6507 19.7059L26.0042 22.3524C25.809 22.5476 25.809 22.8641 26.0042 23.0594Z" fill="#4883FF"/>
</svg>
