<svg width="505" height="577" viewBox="0 0 505 577" fill="none" xmlns="http://www.w3.org/2000/svg">
<path d="M107.798 539.997C87.4803 527.288 69.5527 512.269 55.2106 494.94C74.3334 489.163 92.2611 481.076 107.798 471.834C128.714 459.125 146.642 443.529 160.984 425.621C170.545 431.398 181.302 436.019 193.851 439.485C209.986 443.529 229.109 445.839 251.817 445.839C374.323 445.839 395.238 379.409 395.238 281.208L395.238 40.3273L108.396 40.3273L108.396 212.468C108.396 292.761 92.2611 351.682 21.148 370.745C15.7697 372.477 9.19625 373.633 3.22037 374.788C0.830016 360.347 0.232427 345.328 0.232427 330.309L0.232422 -89.6445L504.597 -89.6445L504.597 330.309C504.597 461.436 423.923 576.389 252.415 576.389C193.254 576.389 145.446 562.525 107.798 539.997Z" fill="white"/>
</svg>
