<svg width="226" height="599" viewBox="0 0 226 599" fill="none" xmlns="http://www.w3.org/2000/svg">
<g opacity="0.1" clip-path="url(#clip0_56_2663)">
<path d="M-5.32408 599C-5.65215 598.755 -5.9542 598.381 -6.31871 598.292C-11.974 596.95 -15.4994 593.486 -16.8585 587.831C-16.8898 587.706 -17.0147 587.607 -17.1709 587.383C-22.0503 588.653 -26.8203 588.424 -31.1581 585.464C-35.4959 582.504 -37.9277 578.28 -37.9277 573.072C-37.9277 568.198 -36.678 563.521 -32.5276 560.431C-28.5596 557.471 -23.9146 556.571 -18.8634 557.409C-18.7123 556.451 -18.5457 555.65 -18.4676 554.839C-17.5095 544.601 -11.8698 537.952 -2.40273 534.55C7.71008 530.945 16.7397 533.239 24.5509 540.444C26.6367 542.433 28.2659 544.851 29.326 547.53C30.3675 549.98 29.9874 549.798 32.6067 549.876C38.7983 550.073 44.063 552.3 47.9686 557.263C50.4268 560.462 51.5523 564.486 51.1098 568.495C50.6672 572.504 48.691 576.187 45.594 578.774C44.1628 579.89 42.6423 580.887 41.0479 581.755C40.7372 581.895 40.4595 582.1 40.2325 582.354C40.0056 582.608 39.8346 582.908 39.7305 583.232C37.5642 590.156 32.4401 593.522 25.6288 594.828C20.5534 595.816 15.2916 594.889 10.8605 592.227C10.719 592.155 10.5707 592.098 10.4179 592.055C8.92861 593.439 7.63195 594.932 6.0489 596.014C4.63769 596.976 2.92445 597.47 1.36222 598.199C0.951866 598.424 0.556953 598.676 0.18013 598.953L-5.32408 599ZM9.80864 590.401C10.3294 590.682 10.6627 590.869 11.0064 591.077C15.7712 593.985 20.9004 594.984 26.3318 593.621C32.3099 592.128 37.0174 589.074 38.7098 582.696C38.9702 581.708 39.6211 581.271 40.4491 580.782C42.1884 579.741 44.011 578.758 45.4586 577.385C50.7858 572.36 51.8221 565.16 47.8697 559.084C44.0631 553.236 38.2828 550.973 31.4923 550.916H29.5291C25.8527 539.565 15.5837 533.114 4.72098 534.228C-9.76605 535.715 -17.3845 544.112 -17.7178 558.876C-18.2385 558.766 -18.6603 558.688 -19.0612 558.595C-25.1956 557.174 -31.9184 559.635 -34.7616 564.759C-38.9275 572.25 -36.9435 581.469 -28.7887 585.609C-25.2164 587.425 -21.4983 587.337 -17.7281 586.327C-17.1657 586.177 -16.6033 586.015 -15.9368 585.807C-15.4629 591.852 -12.1927 595.634 -6.79261 597.059C0.133255 598.896 5.93953 596.877 9.80864 590.401Z" fill="black"/>
<path d="M226 165.591C225.819 166.249 225.695 166.921 225.63 167.599C225.552 173.842 223.938 179.752 221.849 185.552C220.048 190.719 217.351 195.53 213.882 199.764C212.507 201.413 210.971 202.927 209.367 204.654C212.299 204.93 215.267 204.597 217.845 206.376C215.137 206.189 212.419 205.762 209.727 205.887C207.034 206.012 204.353 206.683 201.426 207.157C203.691 203.349 206.852 199.952 206.113 195.036C207.831 196.789 207.446 198.563 204.108 205.362C205.55 205.362 206.821 205.299 207.966 204.321C214.403 198.776 218.579 191.769 221.339 183.835C222.932 179.211 224.007 174.426 224.547 169.566C225.138 164.633 225.222 159.653 224.797 154.703C224.242 147.942 222.832 141.279 220.6 134.872C217.892 127.288 214.023 120.348 208.352 114.584C202.03 108.149 194.495 103.769 185.554 101.995C185.033 101.885 184.471 101.719 183.934 101.558C183.825 101.521 183.757 101.36 183.611 101.188C183.872 100.481 184.481 100.668 184.97 100.757C189.803 101.627 194.45 103.322 198.708 105.766C207.524 110.766 213.809 118.127 218.397 127.022C222.042 134.118 224.125 141.724 225.411 149.543C225.64 150.916 225.521 152.341 225.625 153.741C225.705 154.34 225.828 154.933 225.994 155.515L226 165.591Z" fill="black"/>
<path d="M87.7013 391.979C89.6749 382.766 94.2001 375.333 101.595 369.725C106.149 366.18 111.52 363.834 117.217 362.899C110.02 370.911 107.042 379.874 108.364 390.102C109.328 397.572 112.718 403.866 118.3 409.35C119.503 405.77 119.94 402.02 123.367 399.913C126.442 397.908 130.165 397.146 133.782 397.78C134.823 385.981 141.374 379.572 152.903 378.475C159.876 377.814 169.124 381.409 173.04 391.537C175.16 391.849 177.305 391.891 179.258 392.515C184.361 394.138 188.178 397.281 189.34 402.753C189.8 404.664 189.778 406.659 189.274 408.559C188.77 410.459 187.802 412.204 186.455 413.636C185.087 415.142 183.457 416.387 181.643 417.309C181.119 417.604 180.715 418.073 180.503 418.635C178.612 424.056 174.519 426.704 169.166 427.744C164.917 428.582 160.954 427.661 156.934 425.414C156.215 426.324 155.445 427.193 154.627 428.015C151.763 430.616 148.274 431.167 144.613 430.647C143.746 430.452 142.837 430.589 142.067 431.032C137.769 433.567 132.972 435.137 128.007 435.636C123.259 436.165 118.454 435.759 113.863 434.44C109.41 433.148 105.222 431.074 101.496 428.317C101.225 428.114 100.923 427.963 100.621 427.796C97.0537 435.673 87.0399 439.403 77.1145 434.159C74.0578 438.034 70.1418 440.12 65.0802 439.278C60.0186 438.435 56.6598 435.714 55.4726 430.387C50.4422 431.761 45.9326 430.907 42.2613 427.266C39.8347 424.842 38.4339 421.736 38.7046 418.344C39.2931 410.999 43.1778 405.495 53.9155 406.317C53.6343 389.826 73.7714 380.821 87.7013 391.979ZM156.611 423.968C157.002 424.155 157.324 424.275 157.611 424.446C159.613 425.756 161.892 426.586 164.268 426.871C166.645 427.157 169.055 426.889 171.311 426.09C174.863 424.904 177.795 422.834 179.044 419.223C179.273 418.48 179.654 417.792 180.162 417.203C180.67 416.614 181.295 416.136 181.997 415.8C187.611 412.679 190.787 406.233 187.116 399.835C184.21 394.768 179.404 392.978 173.837 392.807C172.218 392.755 172.275 392.838 171.624 391.303C170.504 388.551 168.973 386.059 166.625 384.166C161.787 380.254 156.34 378.657 150.149 379.838C141.421 381.502 134.917 388.681 135.047 397.411C135.047 397.931 135 398.487 134.979 398.919C133.094 398.857 131.334 398.591 129.626 398.779C125.981 399.185 122.825 400.641 121.169 404.147C120.435 405.708 120.097 407.461 119.659 409.147C119.42 410.047 119.852 410.707 120.602 411.295C125.467 415.08 131.311 417.402 137.45 417.988C143.589 418.574 149.768 417.4 155.262 414.604C155.872 414.388 156.502 414.233 157.142 414.141C154.705 420.872 150.107 425.258 144.748 429.529C150.237 430.283 153.94 428.265 156.611 423.968ZM55.0039 407.633L52.8011 407.31C51.1314 407.039 49.4226 407.134 47.7932 407.589C46.1639 408.043 44.653 408.847 43.3653 409.943C40.5846 412.273 39.5274 415.764 39.8451 419.244C40.6366 427.979 48.6612 431.37 54.7747 429.321C55.3086 429.176 55.8514 429.067 56.3995 428.993C56.8525 433.675 59.3156 436.593 63.5597 437.795C69.1472 439.356 73.584 437.509 76.7709 432.593C77.2187 432.822 77.5936 432.988 77.9477 433.196C82.7698 436.005 87.7845 436.229 92.8618 434.107C96.1528 432.728 98.5274 430.377 99.5741 426.678C98.8763 426.038 98.1629 425.466 97.5432 424.805C89.7321 416.482 86.1338 406.712 87.2742 395.304C87.42 393.826 87.0503 392.812 85.7901 391.922C80.5827 388.281 74.8546 387.131 68.8244 388.801C62.0547 390.643 57.3993 394.898 55.7121 401.9C55.2746 403.664 55.2434 405.568 55.0039 407.633ZM154.986 416.04C150.586 418.057 145.819 419.151 140.978 419.254C136.341 419.307 131.744 418.385 127.486 416.549C123.106 414.708 119.118 412.18 116.03 408.564C104.188 394.617 104.256 379.952 113.827 364.798C98.1056 369.007 87.0191 384.889 88.1543 401.213C89.3572 418.537 102.329 432.468 119.92 434.507C136.333 436.39 150.096 426.621 154.981 416.04H154.986Z" fill="black"/>
<path d="M136.297 560.566C137.192 562.777 138.02 564.728 138.76 566.663C139.353 568.255 139.077 568.952 137.573 569.712C136.815 570.08 136.021 570.366 135.203 570.565C130.938 571.673 126.668 572.734 122.403 573.837C121.232 574.051 120.092 574.414 119.013 574.919C118.139 575.447 117.42 576.198 116.93 577.094C116.804 577.327 116.738 577.589 116.741 577.854C116.743 578.119 116.814 578.38 116.945 578.61C117.076 578.841 117.265 579.034 117.492 579.172C117.719 579.31 117.977 579.388 118.243 579.398C119.214 579.512 120.198 579.421 121.133 579.133C126.09 577.423 131.027 575.653 135.943 573.821C136.91 573.4 137.83 572.877 138.687 572.261C139.728 571.595 139.963 571.106 140.166 569.618C141.207 570.274 141.181 571.116 140.536 571.886C139.958 572.584 139.266 573.179 138.489 573.645C134.662 575.897 130.464 577.286 126.267 578.654C124.085 579.367 121.825 579.856 119.638 580.563C119.196 580.704 118.93 581.38 118.597 581.812C118.659 581.963 118.727 582.114 118.795 582.27C119.509 582.356 120.231 582.356 120.945 582.27C125.417 581.136 129.876 579.957 134.323 578.732C135.121 578.465 135.885 578.105 136.599 577.661C138.64 576.542 139.005 576.1 139.801 573.634C139.94 573.969 140.041 574.318 140.103 574.675C140.02 575.841 140.129 577.013 140.426 578.144C140.89 579.622 139.978 580.865 138.822 581.755C138.511 581.969 138.262 582.262 138.101 582.604C137.94 582.946 137.873 583.324 137.906 583.7C137.947 587.534 135.464 590.208 131.542 590.598C130.633 590.675 129.72 590.689 128.808 590.64C125.767 590.557 124.195 589.319 123.377 586.432C118.644 585.953 116.899 584.226 117.649 580.782C115.248 578.701 115.087 578.092 116.524 575.242C116.7 574.949 116.794 574.613 116.794 574.271C116.794 573.93 116.7 573.594 116.524 573.301C115.389 571.054 114.295 568.787 113.243 566.502C112.869 565.69 112.462 565.092 111.463 564.941C108.944 564.658 106.52 563.819 104.365 562.485C102.211 561.15 100.381 559.354 99.0064 557.227C93.8302 549.564 92.1326 541.204 95.8351 532.553C99.371 524.297 105.922 519.287 114.894 517.778C118.387 517.143 121.974 517.239 125.427 518.062C128.88 518.885 132.124 520.417 134.953 522.559C140.957 526.96 143.967 533.057 144.327 540.512C144.713 546.513 142.857 552.445 139.119 557.159C138.229 558.345 137.244 559.437 136.297 560.566ZM127.871 542.359C128.314 542.047 128.642 541.786 128.996 541.568C130.912 540.403 132.225 540.715 133.438 542.567C133.94 543.296 134.202 544.163 134.187 545.049C134.172 545.934 133.881 546.792 133.355 547.504C132.074 549.421 130.683 551.262 129.189 553.018C127.949 554.501 127.246 556.072 127.538 558.017C127.715 559.193 127.819 560.379 128.059 561.534C128.746 564.562 129.501 567.568 130.246 570.674C132.917 569.92 135.693 569.769 138.093 567.891C137.312 565.971 136.656 564.057 135.75 562.267C135.01 560.8 135.474 559.713 136.364 558.626C137.078 557.762 137.88 556.972 138.546 556.077C143.04 550.1 144.337 543.352 142.665 536.194C140.098 525.15 130.865 519.152 120.273 518.559C112.77 518.137 106.411 520.764 101.256 526.268C97.7514 530.009 95.4966 534.275 95.1686 539.513C94.8246 543.788 95.5214 548.082 97.1995 552.03C99.1783 556.535 102.032 560.447 106.755 562.434C108.838 563.323 111.124 563.781 113.421 564.468L117.956 573.946L123.986 572.183C122.549 568.479 121.221 564.9 119.763 561.336C118.45 557.979 116.041 555.164 112.926 553.346C111.714 552.641 110.59 551.796 109.577 550.828C107.312 548.648 107.599 546.448 110.244 544.814C112.483 543.436 115.108 543.253 117.566 542.593C118.638 542.312 119.899 542.723 121.107 542.816C123.768 539.992 124.913 539.888 127.871 542.385V542.359ZM129.246 570.903C128.366 567.121 127.606 563.724 126.788 560.337C125.97 556.951 126.47 554.012 129.053 551.494C130.177 550.341 131.182 549.077 132.053 547.722C132.886 546.479 133.349 545.069 132.709 543.56C132.188 542.317 131.308 541.844 130.246 542.187C129.064 542.572 128.59 543.462 128.871 544.788C128.928 545.064 129.147 545.407 129.048 545.584C128.806 546.116 128.427 546.574 127.949 546.911C127.736 547.015 126.96 546.453 126.778 546.047C126.612 545.535 126.638 544.981 126.85 544.486C127.241 543.488 126.793 542.869 126.075 542.333C124.601 541.23 123.294 541.766 122.481 543.774C123.002 544.367 123.648 544.882 123.919 545.553C124.043 545.859 124.099 546.188 124.083 546.518C124.067 546.848 123.979 547.17 123.825 547.462C123.596 547.703 123.312 547.887 122.998 547.998C122.684 548.11 122.348 548.145 122.018 548.102C121.497 547.977 120.976 547.238 120.799 546.661C120.637 545.844 120.571 545.011 120.602 544.179C119.268 543.503 118.024 543.139 116.581 543.997C116.837 544.33 117.008 544.518 117.159 544.762C117.64 545.353 118.058 545.993 118.404 546.671C118.831 547.769 118.378 548.716 117.514 549.47C117.135 549.838 116.657 550.086 116.139 550.184C115.62 550.283 115.084 550.226 114.597 550.022C113.639 549.501 113.499 548.643 113.556 547.686C113.613 546.729 113.723 545.797 113.816 544.772C112.507 544.826 111.261 545.349 110.306 546.245C108.828 547.509 108.744 548.627 110.171 549.933C111.221 550.859 112.35 551.691 113.546 552.42C116.568 554.233 118.963 556.927 120.409 560.14C121.57 562.741 122.56 565.446 123.596 568.115C124.091 569.4 124.518 570.716 125.012 572.126L129.246 570.903ZM119.201 583.706C120.107 585.266 121.539 585.297 122.893 585.141C127.194 584.621 131.485 583.986 135.542 582.384C136.685 581.873 137.74 581.183 138.666 580.34C139.567 579.591 139.786 578.535 139.421 577.265C133.224 581.261 126.22 582.067 119.201 583.732V583.706ZM124.465 586.353C124.538 586.962 124.774 587.54 125.148 588.026C125.522 588.513 126.02 588.889 126.59 589.116C129.194 590.297 133.464 589.605 135.474 587.597C136.672 586.4 137.474 584.996 137.036 583.331L124.465 586.353ZM115.342 545.038C114.987 545.603 114.757 546.237 114.667 546.899C114.577 547.56 114.63 548.233 114.821 548.872C116.024 549.236 116.857 548.945 117.284 547.883C117.711 546.822 116.972 545.834 115.342 545.064V545.038ZM121.909 544.975C121.846 545.615 121.726 545.907 121.815 546.12C121.975 546.456 122.193 546.761 122.461 547.02C122.507 547.067 122.981 546.869 122.955 546.791C122.957 546.417 122.888 546.047 122.752 545.698C122.664 545.516 122.372 545.392 121.909 545.001V544.975Z" fill="black"/>
<path d="M5.164 439.553C5.49728 440.136 5.164 440.271 4.64326 440.297L-2.49094 440.641C-3.11948 440.609 -3.7496 440.644 -4.3708 440.745C-4.652 440.823 -4.80824 441.359 -5.22483 442.014C-1.78706 441.712 1.67696 441.954 5.03903 442.732C5.32023 445.213 5.59102 447.627 5.88784 450.228C6.57001 450.28 7.31462 450.332 8.05408 450.4C8.90073 450.459 9.70367 450.798 10.3363 451.363C10.969 451.928 11.3954 452.687 11.5483 453.521C11.8607 455.378 11.1317 456.861 9.18411 457.423C7.36652 457.889 5.50695 458.173 3.63299 458.271C1.55473 458.442 -0.53167 458.494 -2.61591 458.427C-3.86935 458.419 -5.11237 458.199 -6.29231 457.777C-8.51588 456.903 -9.02624 454.374 -7.33383 452.663C-6.48502 451.81 -5.3029 451.284 -4.20935 450.582L-5.61017 450.062C-4.34998 449.053 -3.13665 449.583 -2.03268 449.484C-0.928711 449.385 0.211758 449.448 1.33135 449.448H5.08588C4.67449 447.227 4.28911 445.13 3.87772 442.883C0.992813 443.58 -1.88164 442.264 -4.61032 443.247C-5.37061 445.135 -4.28748 447.18 -5.53726 448.87C-6.28192 444.808 -5.62059 440.729 -5.80806 436.671C-5.99553 432.614 -5.84969 428.587 -5.84969 424.431C-9.69797 424.28 -13.6608 424.15 -17.6497 423.962C-21.6386 423.775 -25.6223 424.363 -29.6268 423.505C-30.4235 418.079 -29.809 412.752 -30.1475 407.279L-38.3648 406.936C-38.4429 405.999 -38.5679 405.12 -38.5731 404.241C-38.5731 399.757 -38.5731 395.267 -38.5731 390.783C-38.5731 389.888 -38.672 388.999 -38.7397 387.844C-36.136 386.97 -33.4178 387.511 -30.762 387.943C-30.8505 388.983 -30.9911 389.925 -30.9963 390.856C-31.038 394.924 -31.0328 398.992 -31.0692 403.055C-31.0692 404.095 -31.1733 405.136 -31.2306 406.176C-30.7672 406.525 -30.3246 406.639 -30.1058 405.947C-30.0317 405.606 -30.0071 405.255 -30.0329 404.907C-30.0329 399.705 -30.0329 394.544 -30.0329 389.15C-29.5571 389.055 -29.075 388.996 -28.5905 388.973C-22.2739 389.014 -15.9573 389.15 -9.64071 389.118C-4.31352 389.118 1.01364 388.874 6.34603 388.754C8.63729 388.702 10.9807 388.187 13.1522 389.404C13.278 389.488 13.398 389.58 13.5114 389.68V424.628H5.70032C5.61201 425.12 5.55291 425.617 5.52328 426.116C5.58057 429.898 5.69511 433.685 5.70553 437.467C5.70553 438.17 5.31503 438.877 5.10673 439.579C4.8047 434.884 4.49919 430.202 4.19022 425.534H-4.62597C-5.03735 428.161 -4.92796 438.019 -4.4645 439.533L5.164 439.553ZM-28.9237 422.74L-8.28158 423.187L12.5481 423.661V420.316C12.5481 410.921 12.5481 401.529 12.5481 392.141C12.5481 391.272 12.4388 390.398 12.3867 389.587C10.3818 389.685 8.63732 389.81 6.89284 389.862C1.56565 390.013 -3.76154 390.237 -9.08872 390.252C-15.1189 390.278 -21.1439 390.096 -27.1741 390.029C-27.7635 390.076 -28.3484 390.168 -28.9237 390.304V422.74ZM3.62256 451.435V451.31C2.63836 451.31 1.65421 451.258 0.680424 451.31C-1.40254 451.451 -3.52719 451.534 -5.45914 452.496C-5.98569 452.701 -6.4315 453.07 -6.72927 453.55C-7.02704 454.029 -7.16064 454.593 -7.10991 455.155C-7.02659 456.195 -6.35484 456.799 -4.96446 457.106C-4.62442 457.198 -4.27508 457.252 -3.92297 457.267C-0.230919 457.194 3.46114 457.137 7.14799 456.996C7.84462 456.912 8.51939 456.699 9.13726 456.367C9.44943 456.248 9.73191 456.062 9.9651 455.823C10.1983 455.584 10.3766 455.297 10.4876 454.982C10.5986 454.668 10.6396 454.332 10.6078 454C10.5761 453.668 10.4723 453.346 10.3037 453.058C10.1186 452.6 9.80669 452.204 9.40462 451.917C9.00256 451.63 8.52694 451.462 8.03329 451.435C6.55959 451.394 5.09108 451.435 3.64341 451.435H3.62256ZM-32.3086 406.176V388.759H-37.4795V405.895L-32.3086 406.176Z" fill="black"/>
<path d="M85.2276 495.805C83.2801 498.328 81.2856 501.111 79.0881 503.727C71.9747 512.202 64.7833 520.608 57.6335 529.046C56.6806 530.17 55.7484 531.309 54.8788 532.495C54.5227 532.999 54.2648 533.566 54.1185 534.165C53.5041 536.564 51.9939 537.401 49.7391 536.434C48.8445 536.031 48.0102 535.505 47.2603 534.873C42.8236 531.231 38.4806 527.455 33.9866 523.875C29.3364 520.166 24.5508 516.634 19.8276 513.013C16.0523 510.116 12.2613 507.234 8.52237 504.289C7.62113 503.512 6.79155 502.655 6.04363 501.73C5.78041 501.285 5.57235 500.81 5.42398 500.315C6.06449 500.559 6.43943 500.585 6.60086 500.783C9.39724 504.19 13.1049 506.505 16.573 509.106C25.7537 515.999 34.9917 522.819 43.5422 530.508C45.3596 532.147 47.3645 533.572 49.3225 535.05C50.1713 535.684 51.119 536.142 52.4469 535.403C37.1527 521.831 21.3534 509.054 5.72077 495.971C6.13737 495.622 6.18423 495.565 6.24152 495.534C6.30691 495.511 6.37543 495.499 6.44461 495.498C6.51344 495.485 6.5841 495.485 6.65292 495.498C6.78633 495.539 6.91404 495.596 7.03305 495.669C7.20325 495.792 7.36662 495.924 7.52252 496.065L52.5198 533.702C55.0246 530.617 57.6179 527.356 60.2893 524.151C67.9616 514.961 75.6494 505.782 83.3529 496.616C83.577 496.326 83.7857 496.023 83.9778 495.711L37.5798 458.708C36.4029 459.972 35.3302 461.07 34.3147 462.214C29.852 467.25 25.384 472.275 20.9629 477.347C16.0887 482.945 11.2719 488.589 6.41855 494.207C5.28854 495.524 5.28853 497.141 5.17397 498.718C5.17835 499.71 5.08067 500.7 4.88239 501.673C4.14293 498.858 3.43475 496.059 5.62708 493.505C9.09001 489.463 12.4904 485.374 15.9742 481.358C20.0117 476.697 24.0821 472.067 28.1856 467.468C30.6018 464.748 33.0961 462.094 35.5124 459.368C36.0633 458.63 36.5577 457.851 36.9913 457.038C37.4106 457.22 37.8116 457.441 38.189 457.699C44.0994 462.417 49.989 467.167 55.8942 471.89C61.0287 475.995 66.1372 480.136 71.3446 484.146C74.8909 486.878 78.6038 489.401 82.2229 492.038C82.7801 492.449 83.5925 492.605 83.3946 493.765C83.3165 494.244 84.358 494.899 85.2276 495.805Z" fill="black"/>
<path d="M62.9244 -20.3812C63.4975 -20.0329 64.0227 -19.6115 64.4866 -19.1275C67.1372 -15.486 69.241 -11.5583 70.2148 -7.11049C70.8501 -4.25449 71.6312 -1.41931 72.0791 1.4627C72.6779 5.33311 71.8759 9.1255 70.8553 12.8399C69.2326 18.6584 66.2197 23.9962 62.0756 28.3943C57.7587 33.0763 52.3065 35.5213 46.3961 37.1704C42.6311 38.2109 38.8141 39.1264 34.8356 39.0276C26.4257 38.8299 18.651 36.7386 11.897 31.5365C8.14241 28.6493 4.97633 25.2939 2.82046 20.9865C0.810401 16.96 -0.960164 12.8867 -1.58505 8.4232C-1.94355 5.36297 -1.89802 2.26895 -1.44966 -0.779438C-0.533151 -8.18733 2.13826 -14.9293 7.01761 -20.5477C10.6107 -24.6834 14.9641 -27.9296 20.3226 -29.7503C26.0195 -31.6908 31.8674 -32.0965 37.757 -31.9873C41.3918 -31.8867 44.9899 -31.2323 48.427 -30.0469C48.917 -29.8246 49.3829 -29.5527 49.8174 -29.2353L49.8694 -29.2821L46.6773 -29.8024C46.3135 -29.3518 46.0478 -28.8304 45.8971 -28.2715C45.7465 -27.7125 45.7143 -27.1283 45.8024 -26.5562C45.9638 -24.4026 46.2437 -22.2596 46.6408 -20.1367C46.9272 -18.6957 47.2136 -17.2703 46.0003 -16.2403C44.787 -15.2103 43.3966 -15.7201 42.0531 -16.3131C40.2149 -17.0987 38.6735 -16.2455 38.5433 -14.2323C38.4973 -13.2512 38.2033 -12.2978 37.6889 -11.461C37.1744 -10.6241 36.4561 -9.93096 35.6011 -9.44626C34.2341 -8.59896 32.9163 -7.67496 31.6539 -6.67871C30.8832 -6.04404 29.6751 -5.26892 30.2375 -4.15045C30.5916 -3.45336 31.7476 -3.06319 32.6173 -2.73546C34.518 -2.01235 36.3458 -2.81869 38.1371 -3.29729C39.0103 -3.55181 39.9258 -3.62862 40.8292 -3.52318C41.7326 -3.41773 42.6057 -3.13218 43.3966 -2.68344C43.7865 -2.51523 44.1402 -2.27322 44.4381 -1.97074C46.0836 0.110134 48.3958 1.32224 50.5308 2.76324C52.4315 4.03777 53.7906 5.62964 53.4469 8.14749C53.3845 8.77541 53.3845 9.40797 53.4469 10.0359C53.5771 11.9763 54.6499 12.8034 56.5714 12.3665C57.4573 12.1318 58.3271 11.8398 59.1751 11.4925C62.4193 10.322 67.4341 12.0491 68.4807 15.4045L67.6215 14.5358C65.2313 12.148 62.1277 10.4573 58.3731 12.4549C57.6168 12.8206 56.8029 13.0529 55.9673 13.1416C54.1812 13.3861 52.9835 12.3821 52.8429 10.6029C52.7621 9.97604 52.7621 9.34141 52.8429 8.71453C53.2959 6.2539 51.8326 4.76608 50.1923 3.3823C49.6143 2.8933 48.8488 2.62278 48.2291 2.17019C46.9429 1.2234 45.7087 0.208977 44.4329 -0.758629C43.8984 -1.19171 43.3289 -1.57974 42.7301 -1.91872C41.8887 -2.3506 40.966 -2.60151 40.0215 -2.65527C39.077 -2.70903 38.1318 -2.56445 37.2467 -2.23085C35.4528 -1.57712 33.5026 -1.48279 31.6539 -1.96033C29.2169 -2.66263 28.6492 -4.47298 30.3208 -6.34576C30.8017 -6.85952 31.3242 -7.33278 31.883 -7.76076C32.7527 -8.46825 33.6744 -9.11332 34.5336 -9.84163C36.1583 -11.1838 37.5278 -12.5311 37.658 -14.9762C37.7882 -17.4212 40.2201 -18.446 42.4853 -17.2651C42.7353 -17.1403 42.9592 -16.9634 43.2196 -16.8594C45.1671 -16.0686 46.2659 -16.8594 45.9743 -18.9402C45.8389 -19.9078 45.5108 -20.8494 45.365 -21.8118C44.9693 -24.4909 44.1517 -27.2013 45.8858 -29.7503C45.9326 -29.818 45.8233 -29.9948 45.7399 -30.2706C39.491 -32.1277 33.0286 -31.311 26.6027 -30.926C26.3319 -30.926 26.0299 -31.0249 25.7852 -30.926C25.0092 -30.6555 24.2542 -30.3122 23.3898 -29.9636L23.9105 -28.9752C25.3061 -26.421 24.9519 -24.8655 22.4263 -23.4089C19.9771 -21.8935 17.8532 -19.9079 16.1774 -17.5669C14.5631 -15.486 13.5738 -13.0982 13.8914 -10.341C13.9904 -9.44106 13.8498 -8.51507 13.9331 -7.60989C14.0997 -5.83595 13.2717 -4.71228 11.0638 -4.04641C10.0223 -3.72907 8.84542 -3.76549 7.74144 -3.60942C4.93986 -3.21406 2.28409 -2.40772 0.00844598 -0.65979C-0.295988 -0.395386 -0.483219 -0.0213013 -0.512295 0.380646C-0.512295 2.82566 -0.783117 5.32271 -0.418598 7.71571C0.475357 14.1227 3.03179 20.1846 6.99676 25.2991C12.0427 31.7393 18.6145 35.667 26.6079 37.2953C31.222 38.1993 35.9582 38.2961 40.6054 37.5814C44.6378 37.054 48.5723 35.9448 52.2857 34.2884C59.7844 30.8394 65.0439 25.0702 68.3714 17.5634C68.6526 16.934 68.4338 16.086 68.4495 15.3421C68.7249 15.3691 69.0004 15.2922 69.222 15.1267C69.4436 14.9612 69.5953 14.7188 69.6472 14.4473C71.2719 9.61971 71.9593 4.76088 71.1001 -0.352861C69.9388 -7.26655 67.9131 -13.7537 63.4764 -19.3252C63.2813 -19.669 63.1407 -20.0411 63.0598 -20.428L62.9244 -20.3812ZM-0.137377 -1.6534C0.0652182 -1.64547 0.267709 -1.67186 0.461488 -1.73144C3.41694 -3.34563 6.66257 -4.36043 10.0119 -4.71749C12.7562 -5.03482 13.4071 -6.35097 13.0686 -9.10292C12.7614 -11.652 12.7666 -14.2323 14.5111 -16.4536C15.2818 -17.4368 15.8702 -18.5657 16.594 -19.5749C17.9844 -21.5205 19.5258 -23.2736 21.8587 -24.2048C23.7959 -24.98 24.1864 -26.4626 23.0877 -28.2781C22.8377 -28.6891 22.5305 -29.0689 22.2597 -29.4486C9.45469 -25.8383 0.482306 -12.6196 -0.137377 -1.65861V-1.6534Z" fill="black"/>
<path d="M75.6042 246.943C71.6778 252.343 66.4912 254.658 60.133 253.555C53.8528 252.468 49.7182 248.732 48.4215 242.261C44.6201 243.301 41.027 243.442 37.4859 242.136C30.0758 239.4 25.8161 231.144 27.9355 223.835C28.0501 223.429 28.1751 223.029 28.2688 222.623C30.2476 214.299 38.7462 211.62 44.4118 212.244C45.1664 212.284 45.9225 212.284 46.677 212.244C46.7291 211.464 46.7603 210.71 46.8384 209.961C47.8799 199.593 53.5248 192.71 63.2106 189.459C73.6254 185.953 82.9311 188.361 90.7005 196.222C92.6243 198.27 94.1107 200.688 95.0695 203.328C95.5017 204.431 95.9496 204.805 97.1525 204.805C102.282 204.805 106.927 206.267 110.905 209.659C117.706 215.454 118.357 225.109 113.16 231.482C111.299 233.671 109.012 235.459 106.437 236.736C105.838 237.048 105.255 237.256 105.063 238.136C104.089 242.547 101.24 245.575 97.3764 247.593C90.4922 251.188 83.5351 251.047 76.6457 247.468L75.6042 246.943ZM75.2085 245.382C75.7657 245.684 76.1458 245.866 76.4999 246.079C82.202 249.554 88.1957 250.121 94.429 247.78C99.2771 245.954 102.855 242.833 104.125 237.589C104.375 236.549 105.047 236.133 105.932 235.753C108.918 234.47 111.456 232.33 113.223 229.604C114.691 227.414 115.769 224.922 115.733 222.352C115.761 219.995 115.235 217.665 114.199 215.547C113.163 213.429 111.644 211.584 109.765 210.158C105.954 207.083 101.11 205.58 96.2256 205.955C95.3299 206.012 94.7467 205.804 94.4811 204.878C94.2874 204.278 94.0525 203.693 93.7781 203.125C90.7005 196.19 85.3785 191.883 78.1142 189.937C72.4494 188.326 66.3894 188.85 61.086 191.41C53.6446 194.984 49.0048 200.774 48.0674 209.18C47.9008 210.673 47.8539 212.182 47.7549 213.691C33.7314 211.542 28.6958 219.413 28.5917 227.658C28.527 229.699 28.9269 231.727 29.7613 233.591C30.5957 235.455 31.8428 237.105 33.4085 238.417C38.1733 242.542 43.5526 242.989 49.4526 240.737C50.0254 247.718 54.1392 251.401 60.3881 252.478C66.637 253.555 71.7456 251.131 75.2085 245.382Z" fill="black"/>
<path d="M-34.371 162.579C-35.6052 161.955 -36.1416 161.476 -36.402 160.498C-36.6623 159.52 -37.6309 158.657 -38.2402 157.72C-41.4792 152.726 -43.3591 147.316 -43.1351 141.297C-43.0206 138.139 -42.4582 135.903 -41.0522 134.186C-41.2605 135.575 -41.4219 136.974 -41.6927 138.348C-42.7862 143.961 -41.625 149.21 -39.0369 154.173C-37.9121 156.326 -36.4696 158.334 -35.0636 160.556C-28.1326 157.471 -24.3988 152.185 -22.6439 145.209C-22.0972 146.666 -22.4148 147.961 -22.8939 149.241C-24.7116 154.14 -28.2302 158.223 -32.8088 160.748L-33.8503 161.393C-33.5379 162.532 -32.965 162.886 -32.0173 162.21C-30.1374 160.873 -28.2471 159.541 -26.4089 158.147C-24.0343 156.342 -21.5504 154.937 -18.478 154.568C-14.1038 154.048 -10.4846 155.478 -7.32373 158.319C-3.82956 161.44 -1.81947 165.503 -0.361389 169.867C2.06006 177.119 1.99754 184.434 0.128078 191.774C-0.276012 193.113 -0.798824 194.413 -1.43415 195.66C-2.64227 198.261 -5.12621 199.197 -7.59453 199.983C-8.59435 200.3 -9.79726 199.926 -10.8439 200.149C-13.1352 200.638 -15.0099 201.679 -15.6556 204.238C-15.9732 205.497 -17.0356 206.293 -18.2072 206.891C-22.1753 208.915 -26.2892 209.035 -30.4447 207.718C-39.1358 204.961 -46.2439 199.993 -51.4149 192.414C-53.6633 189.156 -54.8747 185.296 -54.8905 181.339C-54.9063 177.382 -53.7258 173.512 -51.5035 170.237C-48.8321 166.346 -45.1816 163.963 -40.3127 163.719C-38.9171 163.646 -37.5215 163.464 -36.1468 163.266C-35.5349 163.092 -34.9405 162.862 -34.371 162.579ZM-32.4547 164.358C-33.3848 164.23 -34.3226 164.165 -35.2615 164.166C-36.8602 164.28 -38.4484 164.608 -40.0523 164.717C-41.9504 164.799 -43.808 165.293 -45.4952 166.165C-47.1825 167.038 -48.6589 168.268 -49.8214 169.769C-52.279 172.863 -53.6797 176.663 -53.8184 180.611C-53.9571 184.559 -52.8265 188.447 -50.5922 191.706C-46.3481 198.094 -40.4689 202.49 -33.4858 205.466C-29.4917 207.162 -25.3674 208.161 -21.0192 206.787C-18.9102 206.121 -16.9314 205.372 -16.3065 202.86C-16.138 202.211 -15.8123 201.613 -15.3583 201.12C-14.9043 200.627 -14.3358 200.252 -13.7028 200.03C-12.0052 199.395 -10.2972 198.552 -8.53707 198.386C-7.66574 198.333 -6.81903 198.076 -6.06545 197.636C-5.31187 197.196 -4.6726 196.585 -4.19931 195.852C-3.25788 194.559 -2.46647 193.163 -1.84034 191.691C0.289494 186.208 0.628021 180.522 -0.361389 174.763C-1.26227 169.514 -3.09531 164.645 -6.64156 160.545C-11.9011 154.459 -19.5924 154.1 -25.0342 158.464C-27.164 160.16 -29.4552 161.658 -31.6319 163.297C-31.9532 163.608 -32.2254 163.966 -32.4391 164.358H-32.4547Z" fill="black"/>
<path d="M201.681 472.348C199.598 472.774 197.625 473.347 195.505 472.665C196.354 472.062 197.37 472.062 198.328 471.89C201.541 471.333 204.332 470.002 206.43 467.447C207.896 465.698 208.83 463.566 209.123 461.304C207.357 461.044 205.826 461.449 204.28 461.824C202.027 462.35 199.902 463.321 198.031 464.68C196.338 465.949 195.151 467.531 195.188 469.794C195.096 470.319 194.935 470.83 194.709 471.313C193.563 469.752 194.146 468.488 194.594 467.317C195.357 465.492 196.732 463.989 198.484 463.067C201.35 461.426 204.529 460.407 207.816 460.076L210.419 459.764C210.299 462.118 209.629 464.411 208.461 466.459C208.034 467.141 207.769 467.911 207.685 468.712C207.607 469.591 206.717 470.553 205.946 471.193C202.759 473.857 198.989 474.97 194.865 474.965H193.865C193.724 475.922 194.349 476.005 194.906 475.958C196.727 475.911 198.543 475.767 200.348 475.526C206.634 474.486 211.284 478.382 212.742 483.413C213.664 486.576 213.549 489.723 212.934 492.948C211.867 498.562 209.227 503.327 205.493 507.515C203.957 509.242 202.238 510.771 199.895 511.437C198.213 511.916 196.771 511.401 195.208 510.844C193.994 510.373 192.746 509.992 191.475 509.705C191.169 509.641 190.853 509.639 190.547 509.701C190.241 509.763 189.951 509.886 189.694 510.064C186.996 512.514 184.21 511.489 181.445 510.36C179.024 509.367 177.352 507.405 175.816 505.423C172.634 501.324 170.416 496.715 169.723 491.544C169.171 487.413 169.203 483.267 171.603 479.579C173.743 476.317 176.483 473.799 180.409 472.884C183.014 472.206 185.772 472.447 188.22 473.565C189.47 474.143 190.735 474.678 192.298 475.365C192.298 472.166 192.053 469.242 192.35 466.381C192.87 461.413 194.901 457.105 198.921 453.922C199.083 453.8 199.258 453.695 199.442 453.61C199.479 453.61 199.557 453.641 199.926 453.766C197.573 456.596 195.094 459.296 194.141 462.843C193.188 466.391 192.579 469.944 193.662 473.706C196.516 474.252 199.15 473.524 201.681 472.348ZM193.625 477.363C191.594 476.395 189.782 475.547 187.981 474.678C186.324 473.815 184.463 473.42 182.599 473.536C180.734 473.651 178.936 474.273 177.399 475.334C171.364 479.215 169.661 484.781 170.765 491.528C171.488 495.754 173.133 499.77 175.582 503.29C177.941 506.76 180.685 509.762 185.2 510.433C186.413 510.615 187.47 510.547 188.324 509.731C189.657 508.461 191.24 508.477 192.849 508.721C193.83 508.811 194.785 509.081 195.667 509.517C197.229 510.417 198.604 510.173 200.015 509.408C201.067 508.862 202.084 508.253 203.061 507.582C205.431 505.871 207.154 503.566 208.607 501.085C211.367 496.403 212.799 491.346 212.112 485.848C211.398 480.125 207.191 475.443 200.077 476.66C198.635 476.91 197.146 476.905 195.688 477.056C194.886 477.165 194.084 477.29 193.625 477.363Z" fill="black"/>
<path d="M15.5263 94.4047C15.5263 90.0037 15.5263 85.6755 15.5263 81.3473C15.5263 78.1219 15.3961 74.8966 15.4742 71.6764C15.5419 68.9297 16.3647 68.1494 18.9997 67.5667C25.7693 66.0737 32.4973 64.5026 39.2565 63.0304C40.9385 62.6663 42.6466 62.0888 44.6775 62.6975C44.766 63.9044 44.9222 65.1373 44.9431 66.3702C44.9951 69.8713 44.943 73.3776 45.0315 76.8838C45.094 79.8907 45.3649 82.8975 45.3336 85.9044C45.3398 88.2853 45.1306 90.662 44.7087 93.0053C43.8234 97.5364 41.4176 100.975 36.8976 102.609C35.0335 103.258 33.0412 103.454 31.0861 103.181C28.0137 102.806 26.3265 100.106 26.9723 97.0578C28.0137 92.2146 33.5388 89.3638 37.3558 89.3222C38.0536 89.3222 38.7514 89.3222 39.746 89.3222C39.746 87.4182 39.7877 85.4882 39.7981 83.553C39.8085 81.6178 39.7981 79.7814 39.7981 77.6173C36.4966 78.1792 33.5232 79.3392 30.4248 79.9791C27.3264 80.619 24.129 81.2432 20.8795 81.8935C20.5879 84.968 20.8795 87.9592 20.9472 90.9557C21.0279 93.8892 20.934 96.825 20.666 99.7474C20.5664 100.837 20.2179 101.89 19.6474 102.824C19.0768 103.758 18.2994 104.55 17.375 105.137C14.3963 107.124 11.1261 108.295 7.48087 107.946C2.04433 107.426 1.35176 102.359 3.52846 99.3312C5.24105 96.9822 7.8158 95.4071 10.6887 94.951C12.2301 94.6492 13.8443 94.5868 15.5263 94.4047ZM16.396 95.8041C15.6721 95.7625 15.0681 95.7053 14.4588 95.7001C12.2665 95.6689 10.0742 95.8041 8.20992 97.0318C7.04346 97.7861 6.12692 98.8682 4.9865 99.7058C3.38782 100.913 3.18994 102.531 3.68464 104.226C4.17935 105.922 5.52807 106.578 7.19965 106.76C10.6313 107.134 13.7141 106.188 16.573 104.383C17.3717 103.872 18.0505 103.194 18.5628 102.397C19.0751 101.6 19.4089 100.701 19.5413 99.763C20.1297 96.6417 20.062 93.5204 19.8433 90.3522C19.6558 87.2934 19.6089 84.2293 19.4944 81.1288C23.2697 80.3381 26.7848 79.6722 30.2269 78.8606C33.669 78.0491 37.184 77.0711 40.8812 76.1139C41.0375 81.2224 40.8812 85.998 40.8448 90.8204C39.4648 90.6123 38.3504 90.2118 37.2933 90.3314C34.2157 90.6852 31.4819 91.8921 29.451 94.3371C28.9218 94.9485 28.5195 95.6588 28.2674 96.4269C28.0153 97.1949 27.9185 98.0053 27.9825 98.811C28.1179 100.502 29.1645 101.787 30.8309 101.995C34.3772 102.442 37.6735 101.865 40.3553 99.2115C42.611 96.9525 43.9154 93.9165 44.0005 90.7268C44.2036 86.82 44.1515 82.9235 44.1515 78.9907C44.1515 74.7145 44.0682 70.4435 44.0161 66.1725C44.0161 65.2153 44.1619 64.1905 43.2246 63.4674C42.3133 63.6027 41.4072 63.6859 40.5271 63.8836C33.3686 65.4893 26.2102 67.1089 19.0517 68.7424C17.0885 69.1898 16.6928 69.5435 16.6511 71.5672C16.5886 74.855 16.6511 78.1531 16.6511 81.4513C16.6511 85.3738 16.7345 89.2962 16.7345 93.2186C16.6744 94.0865 16.5613 94.95 16.396 95.8041Z" fill="black"/>
<path d="M42.6987 316.158C38.012 316.017 33.6378 315.638 29.4302 317.578C28.8105 316.465 29.2687 315.648 29.6697 314.868C32.2743 310.043 35.9686 305.891 40.4594 302.741C42.6088 301.266 45.0972 300.359 47.6926 300.104C48.6611 299.995 49.6298 299.849 50.6035 299.719C54.8684 291.349 61.3048 285.153 69.4752 280.783C74.8072 277.829 80.6284 275.859 86.6597 274.967C88.9978 274.655 91.4244 274.416 93.1897 272.47C93.7105 271.903 94.5489 271.71 95.0645 272.293C95.455 272.735 95.7778 273.729 95.5435 274.155C93.5543 277.797 94.1271 281.797 93.6949 285.657C93.1079 290.246 91.7579 294.705 89.7008 298.85C86.6643 305.186 82.3677 310.838 77.0728 315.461C75.9688 316.433 74.8701 317.412 73.7348 318.348C73.3909 318.58 73.1319 318.918 72.9966 319.31C72.8614 319.702 72.8573 320.128 72.985 320.522C73.8546 324.346 72.9434 327.889 70.85 331.119C69.7131 332.886 68.4569 334.574 67.0902 336.171C65.127 338.449 63.0128 340.603 60.9455 342.793C60.5241 343.232 60.01 343.571 59.4405 343.787C60.4091 338.746 59.2791 334.017 58.2532 329.106C57.7816 329.317 57.3241 329.559 56.8837 329.829C54.7694 331.353 52.749 330.958 50.6348 329.741C47.6092 327.988 45.2242 325.579 43.0007 322.936C41.4384 321.089 40.6313 319.409 42.3133 317.276C42.4915 316.922 42.6211 316.546 42.6987 316.158ZM94.2521 273.021C92.367 274.936 90.1486 275.622 87.748 275.867C83.4675 276.325 79.4161 277.677 75.4377 279.222C67.6543 282.151 60.8304 287.168 55.7172 293.721C54.3424 295.484 53.0458 297.316 51.8116 299.178C50.916 300.53 49.6714 301.04 48.1664 301.16C45.564 301.349 43.0636 302.248 40.9386 303.761C36.6372 306.799 33.3305 310.742 30.6018 315.206C30.5081 315.357 30.5654 315.596 30.5446 315.887C35.1271 314.961 39.6627 314.498 44.4588 315.58C43.8131 316.839 43.2767 317.963 42.6622 319.04C42.2456 319.773 42.4123 320.294 42.8913 320.933C45.2659 324.086 47.9165 326.911 51.3534 328.981C53.7071 330.396 53.6238 330.49 56.0973 329.101C56.9618 328.617 57.6596 327.649 58.9718 328.024C60.3181 332.292 60.9807 336.747 60.935 341.222C63.2836 338.694 65.3509 336.639 67.2256 334.417C70.4594 330.583 72.9225 326.406 72.1622 321.089C71.8862 319.165 72.4174 317.666 74.1306 316.657C74.2476 316.579 74.3558 316.488 74.4535 316.387C79.3328 312.225 83.6862 307.6 86.8679 301.987C90.0497 296.374 92.4295 290.397 92.7992 283.821C92.9919 280.408 92.8877 276.954 94.5072 273.786C94.5437 273.687 94.4239 273.521 94.2521 273.021Z" fill="black"/>
<path d="M214.158 0.333843C215.2 -1.6846 216.377 -3.37531 216.949 -5.24809C217.665 -7.52517 217.902 -9.92524 217.647 -12.2982C217.392 -14.6711 216.649 -16.9659 215.465 -19.0391C214.28 -21.3092 212.738 -23.3747 210.898 -25.1568C210.643 -24.3349 210.378 -23.6846 210.237 -23.0135C208.425 -15.7617 206.644 -8.50465 204.806 -1.26322C204.222 1.04134 203.54 3.32509 202.171 5.32793C201.947 5.65567 201.65 5.95739 201.192 6.57125C201.192 5.98341 201.067 5.71289 201.155 5.53082C203.566 0.65638 204.514 -4.66545 205.842 -9.86242C207.3 -15.5432 208.68 -21.2448 210.096 -26.9412C215.986 -23.0031 221.74 -12.9941 216.772 -1.38808C218.42 -2.0593 219.835 -3.19659 220.844 -4.66024C222.584 -7.08446 223.235 -9.86242 223.297 -12.76C223.417 -18.2379 221.803 -23.2164 219.074 -27.9192C217.356 -30.8792 215.746 -33.9121 214.288 -37.0074C213.554 -38.568 213.247 -40.3315 212.669 -42.3396L207.706 -42.813C204.472 -28.3197 201.301 -14.097 198.161 -0.00950241C195.729 -0.347641 193.542 -0.795029 191.334 -0.925083C187.783 -1.13317 184.314 -0.701389 181.268 1.36908C179.013 2.89851 177.774 4.93777 178.237 7.79376C178.414 9.05574 179.057 10.2061 180.039 11.0191C185.247 15.3161 193.516 15.1808 198.171 10.6029C198.991 9.79486 199.812 8.992 200.635 8.19433L201.051 8.53247C200.48 9.42575 199.847 10.2776 199.156 11.0815C195.958 14.3693 192.027 15.519 187.491 15.1236C185.324 14.9254 183.224 14.2693 181.331 13.1988C175.832 10.1607 175.462 3.99617 180.628 0.4743C182.722 -0.967793 185.179 -1.79497 187.72 -1.91349C189.282 -1.98632 190.813 -1.99673 192.35 -1.91349C193.886 -1.83026 195.406 -1.59616 197.208 -1.39328C200.822 -15.3195 203.337 -29.6099 206.946 -43.6713C209.419 -44.2332 211.586 -43.4893 213.898 -42.7193C214.419 -37.3923 217.257 -33.0329 219.907 -28.6006C222.558 -24.2897 224.112 -19.3958 224.432 -14.3467C224.646 -10.6271 223.948 -7.06365 221.693 -3.99957C219.86 -1.50252 217.501 0.214195 214.158 0.333843Z" fill="black"/>
<path d="M11.267 249.606L6.73654 247.895C3.409 254.257 0.164795 260.448 -3.07943 266.623C-6.32365 272.798 -9.48454 278.858 -12.7652 285.116C-15.2226 283.353 -18.0419 282.157 -21.0189 281.615C-23.5914 281.147 -26.1691 281.095 -28.6843 282C-30.0967 282.467 -31.3062 283.403 -32.1107 284.653C-33.3813 286.693 -33.1054 289.086 -31.4546 291.089C-26.9763 296.525 -19.5348 297.201 -14.744 294.246C-13.9994 293.788 -13.2078 293.393 -12.1872 292.831C-12.8479 293.936 -13.756 294.873 -14.8403 295.568C-15.9246 296.263 -17.1554 296.697 -18.4361 296.837C-23.1228 297.482 -27.3981 296.54 -30.9339 293.195C-31.9771 292.264 -32.8264 291.136 -33.4334 289.876C-34.9332 286.36 -33.2876 282.781 -29.731 281.262C-26.9138 280.055 -24.0028 279.987 -21.0606 280.533C-18.5579 280.923 -16.1483 281.769 -13.9525 283.03C-13.6755 283.151 -13.3878 283.245 -13.0933 283.311C-6.72287 271.201 -0.347267 259.076 6.03355 246.938C8.55915 246.844 10.3401 248.259 12.2408 249.357C12.2408 250.678 12.2408 251.958 12.2408 253.18C12.1835 256.302 13.2823 259.225 13.9176 262.232C14.4696 264.968 15.2663 267.679 15.5267 270.441C15.9901 275.425 15.2507 280.247 12.272 284.456C10.0328 287.624 6.9657 289.382 2.99244 289.32C2.56617 289.266 2.14477 289.179 1.73222 289.06C10.0641 281.959 9.77248 273.781 5.31493 264.724C4.09639 266.852 2.97162 268.766 1.89368 270.701C-0.897491 275.716 -3.5845 280.788 -6.48503 285.741C-7.56297 287.588 -9.08878 289.169 -10.4635 290.849C-10.651 291.083 -10.9843 291.177 -11.505 291.463C-11.3957 291.021 -11.4061 290.797 -11.3019 290.678C-7.95876 286.838 -5.79768 282.26 -3.31895 277.885C-0.840218 273.51 1.62811 268.943 4.10683 264.474C4.36721 264.006 4.7109 263.59 5.02856 263.122C9.25177 267.97 12.4075 278.551 4.90358 287.946C5.38753 287.938 5.86924 287.878 6.34084 287.77C10.3349 286.209 12.4335 283.025 13.6312 279.118C15.1934 274.119 14.7872 269.109 13.3916 264.209C12.1054 259.501 10.7567 254.814 11.267 249.606Z" fill="black"/>
<path d="M160.678 171.61C163.178 170.637 165.438 169.431 167.849 168.884C172.712 167.792 177.18 168.749 180.695 172.578C181.316 173.243 181.826 174.004 182.205 174.83C184.96 181.037 183.684 187.003 178.04 191.217C174.056 194.188 169.51 196.024 164.792 197.392C157.606 199.473 150.268 200.945 143.067 202.35C142.462 200.94 141.817 199.702 141.39 198.391C140.051 194.276 138.687 190.172 137.547 185.999C136.483 182.453 135.684 178.833 135.156 175.169C134.636 170.95 134.547 166.673 136.104 162.512C137.922 157.658 141.041 154.646 146.321 153.736C153.82 152.451 159.616 158.027 160.699 163.344C161.25 165.66 161.277 168.07 160.777 170.398C160.708 170.798 160.675 171.204 160.678 171.61ZM143.749 201.216C144.79 200.976 145.738 200.763 146.686 200.54C152.138 199.281 157.621 198.094 163.032 196.732C167.605 195.636 171.972 193.815 175.967 191.337C178.326 189.844 180.435 188.033 181.513 185.474C184.554 178.243 180.612 169.181 170.385 169.618C166.71 169.803 163.208 171.232 160.454 173.67C160.05 173.974 159.629 174.255 159.194 174.513L158.767 174.232C158.98 173.4 159.21 172.567 159.402 171.735C160.553 166.72 160.397 161.981 156.528 158.017C150.419 151.774 140.609 154.958 137.963 160.811C135.485 166.294 135.573 171.839 136.542 177.457C137.239 181.505 138.468 185.464 139.505 189.448C140.603 193.478 142.023 197.413 143.749 201.216Z" fill="black"/>
<path d="M127.184 -3.25047C125.46 -3.66664 124.106 -3.96837 122.758 -4.32211C119.779 -5.0955 116.804 -5.88277 113.832 -6.6839C113.423 -6.7777 113.025 -6.91549 112.645 -7.09487C111.661 -7.61509 111.494 -8.3434 112.312 -9.09771C113.16 -9.82865 114.066 -10.4914 115.019 -11.0797C116.946 -12.3439 118.873 -13.6236 120.857 -14.7941C123.622 -16.4276 123.95 -18.8934 123.429 -21.7078C123.013 -23.9655 122.581 -26.2285 122.19 -28.4706C122.08 -29.0155 122.067 -29.5757 122.154 -30.1249C122.518 -31.9821 123.544 -32.4971 125.153 -31.4723C127.12 -30.2682 128.996 -28.9225 130.767 -27.4458C133.927 -24.7302 137.015 -24.158 140.598 -26.7435C142.452 -28.0908 144.582 -29.0689 146.592 -30.1977C147.126 -30.5339 147.688 -30.8212 148.274 -31.0561C149.414 -31.4566 150.086 -31.0561 150.044 -29.8284C149.994 -28.5765 149.803 -27.3341 149.477 -26.1244C148.842 -23.7678 148.133 -21.4425 147.321 -19.1223C147.006 -18.3737 146.942 -17.5433 147.139 -16.7555C147.336 -15.9676 147.784 -15.2649 148.415 -14.7525C150.43 -12.9109 152.482 -11.111 154.528 -9.3058C155.471 -8.47865 156.47 -7.70353 157.408 -6.87118C158.533 -5.86716 158.512 -4.48858 157.215 -3.71866C156.337 -3.15063 155.323 -2.8257 154.278 -2.77707C151.56 -2.81869 148.842 -3.11001 146.123 -3.29729C145.92 -3.29729 145.722 -3.42734 145.514 -3.46376C142.744 -3.94756 142.197 -3.73427 140.827 -1.22682C139.234 1.64998 137.745 4.58401 136.177 7.47121C135.635 8.52904 135.007 9.54001 134.297 10.4937C133.646 11.326 132.777 11.2168 132.272 10.2908C131.857 9.47915 131.509 8.6354 131.23 7.76773C130.09 4.54759 128.98 1.31704 127.83 -1.90831C127.644 -2.36942 127.429 -2.81779 127.184 -3.25047ZM133.224 10.1399C133.943 9.06828 134.448 8.43361 134.823 7.72612C136.604 4.39673 138.38 1.06213 140.093 -2.30367C141.083 -4.24928 142.587 -5.04522 144.717 -4.69667C145.134 -4.62904 145.54 -4.50939 145.957 -4.47818C148.748 -4.26489 151.534 -4.0464 154.325 -3.87993C154.888 -3.81311 155.457 -3.92296 155.955 -4.19424C156.452 -4.46551 156.852 -4.88476 157.1 -5.39376C156.481 -6.01802 155.898 -6.6839 155.236 -7.26134C152.919 -9.29019 150.55 -11.2566 148.248 -13.3063C146.389 -14.9606 145.483 -16.9478 146.316 -19.4865C147.149 -22.0251 147.92 -24.6886 148.649 -27.2897C148.844 -28.2377 148.981 -29.1967 149.06 -30.1613C148.139 -29.7087 147.571 -29.459 147.035 -29.1625C144.473 -27.7267 141.905 -26.2857 139.359 -24.8291C137.01 -23.4817 134.703 -23.4193 132.454 -25.006C130.34 -26.499 128.251 -28.0336 126.137 -29.5214C125.413 -30.0417 124.637 -30.4786 123.575 -31.1497C123.391 -30.3348 123.29 -29.5035 123.273 -28.6683C123.414 -27.2793 123.794 -25.9163 123.94 -24.5065C124.179 -22.5644 124.367 -20.6188 124.502 -18.6697C124.572 -17.861 124.415 -17.0488 124.046 -16.3252C123.678 -15.6015 123.115 -14.9954 122.419 -14.5756C120.445 -13.249 118.462 -11.9381 116.477 -10.6219L112.895 -8.28617C113.451 -7.9737 114.031 -7.70413 114.629 -7.47983C118.008 -6.57986 121.362 -5.56543 124.788 -4.87875C125.826 -4.73159 126.802 -4.29608 127.604 -3.62187C128.406 -2.94766 129.002 -2.06188 129.324 -1.06556C129.991 0.703182 130.605 2.48233 131.225 4.26667C131.845 6.05102 132.449 7.85097 133.224 10.1399Z" fill="black"/>
<path d="M191.876 575.954C187.475 575.637 178.081 572.911 176.389 571.387C176.743 570.839 177.167 570.339 177.649 569.899C179.008 568.916 180.45 568.057 181.846 567.121C183.242 566.185 184.674 565.04 186.179 564.161C187.944 563.121 188.459 561.56 188.262 559.703C188.095 557.97 187.741 556.259 187.47 554.537C187.251 553.086 186.981 551.634 186.892 550.172C186.835 549.304 186.803 548.258 187.767 547.759C188.73 547.259 189.553 547.623 190.329 548.17C192.834 549.954 195.323 551.764 197.828 553.543C198.6 554.163 199.549 554.52 200.539 554.562C201.528 554.604 202.505 554.329 203.327 553.777C204.582 553.023 205.93 552.409 207.201 551.697C208.664 550.869 210.091 549.98 211.549 549.142C212.08 548.803 212.648 548.525 213.242 548.315C214.049 548.065 214.72 548.372 214.674 549.288C214.65 550.678 214.486 552.062 214.184 553.418C213.663 555.583 212.94 557.716 212.2 559.822C211.435 562.018 211.955 563.766 213.7 565.253C216.356 567.532 218.954 569.873 221.625 572.131C223.589 573.795 223.396 575.403 220.922 576.292C218.548 577.125 216.08 576.813 213.632 576.516C212.112 576.344 210.591 576.121 209.076 575.887C207.435 575.632 206.472 576.407 205.748 577.796C203.983 581.208 202.15 584.59 200.306 587.966C199.92 588.715 199.442 589.414 198.885 590.047C198.203 590.791 197.526 590.708 197.031 589.818C196.61 589.015 196.262 588.175 195.989 587.311C194.948 584.408 194.005 581.489 192.979 578.587C192.698 577.681 192.276 576.87 191.876 575.954ZM221.928 574.024C221.329 573.447 220.766 572.859 220.152 572.318C217.782 570.237 215.413 568.156 213.012 566.122C210.929 564.327 210.294 562.184 211.19 559.541C211.997 557.164 212.71 554.755 213.398 552.336C213.631 551.28 213.805 550.212 213.919 549.137C212.773 549.761 212.049 550.146 211.315 550.547C209.06 551.821 206.784 553.054 204.545 554.381C201.504 556.196 198.718 555.832 196.01 553.668C194.261 552.274 192.428 550.979 190.6 549.689C189.897 549.168 189.235 548.476 187.939 548.757C188.053 550.167 188.116 551.551 188.293 552.919C188.579 555.13 188.97 557.331 189.272 559.541C189.605 562.012 188.678 563.906 186.569 565.264C184.46 566.622 182.336 567.995 180.227 569.379C179.445 569.899 178.696 570.456 177.581 571.241C178.623 571.621 179.268 571.897 179.919 572.073C183.429 573.015 186.939 573.983 190.47 574.846C191.221 575.017 191.919 575.367 192.504 575.867C193.089 576.368 193.544 577.003 193.828 577.718C194.349 578.93 194.786 580.194 195.219 581.453C196.099 584.007 196.948 586.567 197.921 589.459C198.311 589.021 198.671 588.557 198.999 588.07C200.702 584.949 202.41 581.828 204.061 578.649C206.107 574.732 206.368 574.612 210.773 575.008C213.559 575.273 216.361 575.392 219.157 575.528C219.719 575.603 220.29 575.498 220.788 575.228C221.286 574.958 221.685 574.536 221.928 574.024Z" fill="black"/>
<path d="M45.9119 143.139C44.5059 138.816 42.5635 135.153 42.0011 131.07C42.9437 130.331 43.6987 130.627 44.4955 130.96C46.7503 131.907 49.0415 132.771 51.2651 133.744C51.9017 134.049 52.6168 134.151 53.3136 134.037C54.0104 133.922 54.6551 133.597 55.1603 133.104C56.3788 132.063 57.4828 130.882 58.6701 129.795C59.4169 129.058 60.2252 128.387 61.0863 127.787C62.3101 127.012 63.3463 127.439 63.5442 128.874C63.6485 130.199 63.6589 131.528 63.5754 132.854C63.5754 134.383 63.539 135.918 63.5754 137.448C63.5942 138.049 63.7865 138.632 64.1293 139.127C64.472 139.621 64.9507 140.007 65.5074 140.236C67.8768 141.438 70.2566 142.624 72.6311 143.82C73.2456 144.127 74.1517 144.377 73.9434 145.204C73.7103 145.847 73.2332 146.372 72.6155 146.666C71.4601 147.163 70.2738 147.585 69.0641 147.93C67.8039 148.346 66.5332 148.731 65.2678 149.142C64.6204 149.315 64.0424 149.684 63.6127 150.198C63.183 150.712 62.9227 151.346 62.8672 152.014C62.4975 154.849 62.0653 157.674 61.732 160.509C61.6331 161.315 61.555 162.069 60.7374 162.434C59.8261 162.834 59.1179 162.33 58.4566 161.773C56.7485 160.332 55.6914 158.376 54.8895 156.404C53.7387 153.585 52.3274 151.972 48.9582 152.903C47.0315 153.423 44.9589 153.423 42.9437 153.647C42.0437 153.777 41.1322 153.808 40.2254 153.741C39.1839 153.611 38.8402 152.752 39.4234 151.889C40.3191 150.557 41.345 149.288 42.3032 148.018C43.5738 146.338 44.7819 144.647 45.9119 143.139ZM73.0425 145.35C72.1729 144.829 71.7199 144.554 71.2408 144.309C69.1787 143.269 67.1148 142.228 65.0492 141.188C63.4869 140.397 62.5496 139.175 62.5132 137.385C62.5132 135.991 62.5132 134.592 62.5132 133.197C62.6372 131.658 62.6057 130.111 62.4194 128.578C61.0186 128.833 60.2896 129.712 59.4928 130.451C58.4514 131.403 57.5505 132.459 56.5194 133.4C54.7437 135.023 52.7961 135.83 50.4059 134.623C48.9687 133.9 47.4637 133.312 45.9744 132.703C45.1152 132.355 44.282 131.824 43.1103 131.897C43.3395 132.651 43.5061 133.239 43.704 133.816C44.5215 136.194 45.2662 138.597 46.1931 140.933C46.4846 141.645 46.5898 142.419 46.4987 143.183C46.4076 143.946 46.1232 144.674 45.6723 145.298C45.0266 146.291 44.2664 147.212 43.5529 148.164L40.3192 152.503C40.8502 152.581 41.3862 152.621 41.923 152.622C44.709 152.347 47.5002 152.102 50.2549 151.738C53.0096 151.374 53.6866 151.696 54.9416 154.147C55.4623 155.213 55.983 156.29 56.6079 157.309C57.2856 158.448 58.0316 159.544 58.8419 160.592C59.2429 161.112 59.7949 161.684 60.6593 161.149C60.9822 158.319 61.3414 155.478 61.6227 152.627C61.8778 150.115 63.0703 148.466 65.5959 147.852C66.6843 147.592 67.7674 147.3 68.8298 146.936C70.142 146.51 71.4074 145.979 73.0425 145.35Z" fill="black"/>
<path d="M129.96 267.788C128.262 264.329 126.195 258.018 126.08 255.958C126.892 255.121 127.773 255.62 128.58 255.958C130.21 256.603 131.793 257.342 133.412 258.039C134.053 258.31 134.756 258.45 135.391 258.741C136.865 259.412 138.125 259.038 139.255 258.018C140.817 256.609 142.379 255.199 143.884 253.747C144.66 253.009 145.483 252.119 146.576 252.587C147.753 253.107 147.79 254.372 147.732 255.516C147.644 257.404 147.498 259.288 147.415 261.176C147.325 262.088 147.53 263.005 147.998 263.793C148.466 264.58 149.174 265.198 150.019 265.556C151.971 266.493 153.929 267.434 155.856 268.423C156.694 268.854 157.939 269.052 157.991 270.202C158.033 271.513 156.663 271.7 155.757 272.085C154.509 272.545 153.239 272.943 151.951 273.276C151.544 273.396 151.133 273.484 150.737 273.614C147.227 274.769 147.003 275.092 146.67 278.78C146.457 281.074 146.181 283.368 145.873 285.652C145.618 287.546 144.223 288.186 142.749 286.916C141.641 285.861 140.686 284.656 139.911 283.337C139.111 282.021 138.399 280.654 137.781 279.243C137.581 278.679 137.182 278.206 136.659 277.913C136.136 277.62 135.524 277.527 134.938 277.651C132.027 278.026 129.111 278.364 126.195 278.718C126.126 278.734 126.056 278.744 125.986 278.749C125.018 278.749 123.846 279.103 123.284 278.109C122.721 277.115 123.706 276.418 124.211 275.716C125.934 273.334 127.726 271.034 129.486 268.652C129.662 268.374 129.82 268.086 129.96 267.788ZM156.679 270.55L156.648 270.03C156.424 269.875 156.193 269.73 155.955 269.598C153.757 268.516 151.57 267.419 149.357 266.363C148.417 265.957 147.624 265.271 147.089 264.398C146.553 263.526 146.299 262.51 146.363 261.488C146.363 259.813 146.53 258.143 146.623 256.468C146.675 255.521 147.014 254.533 146.103 253.492C145.425 253.936 144.771 254.415 144.145 254.928C142.687 256.229 141.301 257.623 139.828 258.908C138.469 260.094 136.932 260.562 135.141 259.792C134.313 259.428 133.428 259.184 132.595 258.835C130.933 258.143 129.283 257.42 127.273 256.551C127.347 257.272 127.472 257.986 127.648 258.689C128.46 260.994 129.257 263.309 130.178 265.572C130.531 266.299 130.677 267.109 130.601 267.913C130.525 268.718 130.229 269.486 129.746 270.134C128.767 271.497 127.757 272.839 126.752 274.187C125.976 275.227 125.19 276.268 124.122 277.662C125.341 277.568 126.023 277.526 126.726 277.459C129.652 277.157 132.577 276.85 135.5 276.538C136.094 276.443 136.702 276.544 137.233 276.826C137.764 277.108 138.188 277.554 138.442 278.099C138.963 279.087 139.401 280.128 140.005 281.08C140.947 282.64 141.957 284.133 142.983 285.626C143.348 286.146 143.853 286.557 144.655 286.094C144.957 283.727 145.342 281.319 145.561 278.895C145.952 274.556 146.722 273.63 151.018 272.418C152.893 271.882 154.773 271.159 156.679 270.55Z" fill="black"/>
<path d="M21.2651 441.561C19.7029 439.111 19.8487 437.92 21.8171 436.312C22.2533 436.016 22.5835 435.588 22.7595 435.091C22.9356 434.595 22.9484 434.055 22.7961 433.55C22.3483 431.875 21.4421 430.626 19.6404 430.283C16.4847 429.685 13.8081 433.191 14.1674 435.735C14.3444 436.983 15.0214 437.551 17.0939 438.263V441.385C14.8235 441.733 12.8291 440.266 11.5897 437.441C9.78796 433.332 10.694 430.2 14.7454 426.865V408.007C17.3491 408.033 19.7654 407.68 22.1243 408.319C22.1243 413.704 22.1243 418.87 22.1243 424.04C22.0423 424.401 21.9164 424.751 21.7494 425.081C20.8693 423.12 21.2599 421.387 21.1974 419.712C21.1349 418.037 21.1974 416.211 21.1974 414.463V409.152H15.7609V426.153C16.7442 426.209 17.7301 426.209 18.7134 426.153C20.9058 425.908 22.4992 426.673 23.8688 428.436C26.0924 431.245 26.9099 434.232 25.556 437.618C25.1839 438.556 24.6048 439.397 23.8619 440.08C23.1189 440.763 22.2312 441.269 21.2651 441.561ZM21.8119 440.079C23.1762 439.311 24.2225 438.084 24.7635 436.616C25.3045 435.148 25.3049 433.536 24.7645 432.067C23.6918 428.847 21.0568 427.073 17.7136 427.323C14.86 427.536 12.3188 429.846 11.9386 432.567C11.5585 435.288 12.5687 439.116 16.0524 440.625C16.3128 439.798 16.2504 439.168 15.313 438.757C14.7496 438.55 14.2527 438.195 13.875 437.729C13.4973 437.263 13.2528 436.703 13.1676 436.11C12.6468 432.65 15.6671 428.717 19.7341 429.263C21.8171 429.544 22.9731 430.824 23.6345 432.64C24.3427 434.554 23.9313 435.969 22.2649 437.254C21.213 438.066 21.0464 438.872 21.8119 440.079Z" fill="black"/>
<path d="M184.044 298.887L184.408 297.565H183.528C183.45 297.383 183.336 297.243 183.362 297.133C183.882 294.61 184.346 292.072 184.971 289.58C185.825 286.188 186.726 282.817 187.767 279.477C188.269 278.032 188.944 276.652 189.777 275.368C192.593 270.769 195.45 266.196 198.349 261.649C200.385 258.471 202.515 255.344 204.639 252.228C205.222 251.375 205.962 250.631 206.628 249.835L207.04 250.049C206.89 250.484 206.705 250.907 206.488 251.313C202.187 257.945 197.854 264.563 193.563 271.201C192.423 272.964 191.371 274.78 190.319 276.595C190.033 277.14 189.784 277.703 189.574 278.281L198.609 285.683C198.958 286.724 198.411 287.353 197.651 288.092C194.043 291.515 190.203 294.685 186.158 297.581C185.606 297.981 184.997 298.299 184.044 298.887ZM188.928 279.748C187.981 283.02 187.043 286.277 186.085 289.585L190.298 291.905L196.937 286.074C195.042 283.779 191.173 280.715 188.928 279.748ZM184.643 295.464L185.195 295.802L189.611 292.571L185.695 290.844C185.304 292.566 184.976 294.012 184.643 295.464Z" fill="black"/>
<path d="M198.4 283.956C198.859 283.223 199.265 282.448 199.786 281.756C202.509 278.114 205.373 274.577 207.982 270.831C210.711 266.94 213.226 262.903 215.793 258.897C216.652 257.555 216.46 257.337 215.127 256.458C212.523 254.803 210.029 253.061 207.435 251.318C208.112 250.356 208.69 250.85 209.149 251.157C210.778 252.244 212.356 253.404 213.965 254.512C214.705 255.032 215.481 255.469 216.34 256.01L217.46 254.247C217.376 254.033 217.361 253.851 217.267 253.789C214.851 252.129 212.408 250.501 209.976 248.821C208.878 248.051 207.821 247.541 206.425 248.509C206.488 248.163 206.588 247.825 206.722 247.5C207.659 245.731 208.539 243.915 209.607 242.225C210.575 240.7 212.138 239.811 213.825 239.264C216.428 238.427 218.678 239.197 220.542 241.075C222.516 243.057 222.839 245.471 222.105 248.077C221.37 250.683 220.022 252.957 218.605 255.209C218.084 255.989 217.262 256.718 217.814 257.867C217.892 258.034 217.689 258.388 217.538 258.606C212.195 266.55 207.029 274.629 200.874 282.016C200.223 282.791 199.489 283.504 198.791 284.248L198.4 283.956ZM218.772 252.951C219.407 251.734 219.954 250.761 220.428 249.757C220.709 249.119 220.938 248.46 221.115 247.786C221.912 244.961 221.021 242.391 218.793 241.023C216.413 239.54 213.736 239.884 211.502 241.912C210.022 243.215 208.953 244.92 208.425 246.818C212.195 248.207 214.663 251.744 218.772 252.951Z" fill="black"/>
<path d="M48.9842 333.866C49.9371 333.918 50.4371 334.469 50.3225 335.369C50.262 336.477 50.0247 337.567 49.6195 338.6C48.7401 340.453 47.4853 342.103 45.9346 343.446C44.3839 344.789 42.571 345.796 40.6107 346.403C41.4855 344.39 43.4799 343.152 43.0633 340.681C38.3298 344.078 33.5963 347.236 27.5244 348.297C28.4826 342.746 29.7324 337.643 32.685 332.591L27.8004 333.778C29.446 328.914 34.1586 324.414 38.637 325.454C39.8552 325.734 41.0329 326.168 42.1417 326.744C44.6048 328.024 46.5211 329.985 48.2604 332.102C48.6066 332.67 48.8762 333.28 49.0623 333.918C47.6823 332.649 46.2971 331.385 44.8963 330.105C43.253 328.584 41.3285 327.399 39.2307 326.614C36.0646 325.402 31.154 328.601 30.1333 332.175L35.7209 330.027C33.8627 332.446 32.3632 335.119 31.2686 337.965C30.274 340.754 29.1127 343.542 29.1335 346.809C32.2215 346.148 34.7575 344.806 37.1842 343.308C39.6109 341.81 41.8708 340.114 44.3131 338.428C45.1046 340.161 44.0423 341.591 44.1152 343.079C47.5782 341.461 49.6715 337.45 48.9842 333.866Z" fill="black"/>
<path d="M8.96511 362.54C-2.37664 362.443 -13.7201 362.339 -25.0653 362.228C-25.1435 362.228 -25.2215 362.015 -25.3726 361.796C-24.2946 360.85 -23.0084 361.448 -21.8576 361.344C-20.7067 361.24 -19.483 361.318 -18.0458 361.318V356.756L-15.0931 356.376V361.224C-10.8387 361.578 -6.76128 361.38 -2.55369 361.406C-2.67867 359.664 -2.79319 358.165 -2.90255 356.683C-1.73088 355.856 -0.658199 356.209 0.695728 356.521C0.841537 358.082 0.987356 359.742 1.16441 361.64C3.0547 361.64 4.92935 361.64 6.80402 361.64C7.60596 361.64 8.5485 361.505 8.88698 362.592L8.96511 362.54ZM0.46142 361.5C0.315613 360.714 0.21147 360.049 0.0760765 359.388C-0.0593166 358.727 -0.231157 358.072 -0.376965 357.463C-1.35075 357.172 -1.86109 357.463 -1.75694 358.399C-1.63717 359.44 -1.41846 360.517 -1.2362 361.635L0.46142 361.5ZM-16.4106 357.432C-17.275 358.556 -16.9314 359.664 -16.8116 360.714C-16.8116 360.933 -16.4106 361.12 -16.0148 361.49C-15.6243 359.934 -15.666 358.732 -16.4106 357.416V357.432Z" fill="black"/>
<path d="M8.89196 362.608C9.56892 362.436 10.022 362.608 9.98557 363.388C9.9387 364.366 9.76684 365.344 9.77726 366.317C9.85016 372.13 9.94217 377.941 10.0533 383.75C10.0866 384.082 10.1493 384.411 10.2407 384.733C6.07479 386.814 -21.9515 387.995 -25.9092 386.293C-25.6228 385.44 -24.9198 385.721 -24.347 385.726C-19.8634 385.794 -15.3798 385.935 -10.8962 385.935C-4.15453 385.877 2.57462 385.344 9.24088 384.337C8.81908 377.023 8.19938 369.771 8.96487 362.551L8.89196 362.608Z" fill="black"/>
<path d="M121.175 473.919C120.421 473.832 119.662 473.807 118.904 473.846C109.531 475.355 100.793 473.758 92.7578 468.644C89.9302 466.813 87.5292 464.397 85.7174 461.559C85.6208 461.363 85.5771 461.146 85.5908 460.929C85.6046 460.712 85.6751 460.502 85.7955 460.32C87.389 462.079 88.8419 464.009 90.6228 465.523C92.4219 467.078 94.4009 468.412 96.5176 469.497C98.7035 470.59 100.999 471.45 103.365 472.062C105.671 472.653 108.026 473.033 110.401 473.196C112.817 473.388 115.264 473.237 118.113 473.237C116.785 471.406 114.285 471.053 114.374 468.238C115.127 469.054 115.929 469.823 116.774 470.543C117.687 471.191 118.652 471.762 119.659 472.249C120.581 472.717 121.565 473.071 122.747 473.576C121.305 475.755 119.857 477.815 117.753 479.36C118.311 477.358 119.914 475.963 121.175 473.919Z" fill="black"/>
<path d="M4.09616 378.365L4.26278 381.393H-11.0106C-13.182 381.393 -15.3535 381.393 -17.525 381.393C-18.8373 381.393 -19.1445 381.018 -19.1445 379.786C-19.1445 378.553 -18.7748 378.157 -17.5146 378.116C-15.692 378.053 -13.8694 378.116 -12.0468 378.116C-7.91213 378.116 -3.77747 378.116 0.362427 378.116C1.56013 378.105 2.7162 378.261 4.09616 378.365ZM3.08596 380.249C3.2578 379.25 2.71621 378.979 1.75804 378.984C-4.40754 379.016 -10.5731 378.984 -16.7387 379.026C-17.0818 379.012 -17.4231 379.082 -17.7333 379.229C-17.9052 379.328 -17.9312 379.682 -18.1499 380.269L3.08596 380.249Z" fill="black"/>
<path d="M37.5383 494.457L30.8051 490.815C30.3056 490.569 29.8205 490.295 29.3522 489.994C26.785 488.173 26.6027 486.186 28.769 483.886C30.2635 482.3 32.2319 482.612 33.1692 484.615C33.3412 485.074 33.4787 485.545 33.5806 486.024C34.1795 485.613 34.6846 485.244 35.2106 484.916C35.7603 484.531 36.4182 484.331 37.0893 484.344C37.7604 484.357 38.41 484.583 38.9443 484.989C39.5361 485.369 39.9945 485.924 40.2558 486.577C40.5171 487.23 40.5683 487.947 40.4023 488.631C39.9441 490.883 38.5329 492.631 37.5383 494.457ZM32.435 489.468C32.3323 489.105 32.2557 488.734 32.2059 488.36C32.2468 487.382 32.2329 486.403 32.1642 485.426C31.9664 483.995 30.7791 483.574 29.7741 484.578C27.7536 486.602 28.0764 488.032 30.0448 489.161C32.2736 490.436 34.6065 491.533 36.8561 492.693C38.5642 490.925 39.3244 489.198 39.1318 487.616C38.8818 485.535 37.1529 484.734 35.523 486.056C34.7315 486.69 34.2211 487.668 33.5546 488.469C33.2016 488.824 32.8278 489.158 32.435 489.468Z" fill="black"/>
<path d="M15.4117 406.483L22.4678 406.821C20.8379 407.654 18.4633 407.773 15.0368 407.368C14.8978 406.794 14.7986 406.212 14.74 405.625C14.5734 400.308 14.4206 394.993 14.2817 389.68C14.2817 389.467 14.2817 389.259 14.2817 389.045C14.3442 387.459 14.5629 387.131 16.0887 387.136C18.104 387.136 20.1192 387.324 22.0407 387.428C22.6917 389.415 22.6552 403.929 22.072 405.708C22.0078 405.735 21.9385 405.747 21.8689 405.744C21.8155 405.715 21.7747 405.667 21.7544 405.609C21.7039 405.478 21.6689 405.342 21.6502 405.203C21.6502 404.995 21.6502 404.787 21.6502 404.574C21.6155 399.257 21.5773 393.937 21.5356 388.614C21.5356 388.556 21.4627 388.504 21.3273 388.317H15.4846C14.9639 394.331 15.9689 400.313 15.4117 406.483Z" fill="black"/>
<path d="M28.6908 508.612C26.1444 505.787 23.5824 502.968 21.0516 500.122C20.7568 499.733 20.5297 499.297 20.3798 498.832C19.4373 496.444 20.8433 494.53 23.3845 494.837C24.6239 494.983 25.8319 495.357 27.0609 495.612C27.5816 495.716 28.1024 495.732 28.6231 495.784C28.8054 495.784 29.1439 495.784 29.1439 495.825C29.6334 497.506 31.2893 497.5 32.487 497.906C33.6848 498.312 33.9972 498.905 34.0805 500.252L28.3523 497.688C27.3108 499.477 26.2225 501.246 25.1967 502.968C26.5558 504.95 28.6596 506.089 29.2481 508.274L28.6908 508.612ZM27.4671 496.97C26.0847 496.555 24.6799 496.218 23.2595 495.961C21.5307 495.747 20.7704 496.814 21.4109 498.4C21.9951 499.918 23.0356 501.217 24.3895 502.12C25.3737 500.466 26.3215 498.884 27.4671 496.97Z" fill="black"/>
<path d="M169.239 319.461C173.697 315.981 177.129 311.892 180.269 307.423C180.435 312.943 182.872 317.271 187.038 321.209C185.289 320.98 184.476 320.07 183.705 319.196C182.935 318.322 182.19 317.245 181.357 316.153C180.414 317.323 181.503 318.977 180.019 320.002C179.383 318.353 180.019 316.829 180.05 315.32C180.081 313.812 179.904 312.199 179.821 310.638L179.383 310.529C178.607 311.476 177.873 312.47 177.04 313.364C175.327 315.201 173.593 317.006 171.801 318.775C171.244 319.284 170.604 319.94 169.239 319.461Z" fill="black"/>
<path d="M49.1819 474.231C50.489 476.707 50.0099 479.09 48.0624 480.63C45.1514 482.924 41.8134 482.914 39.4441 480.781C38.2881 479.745 37.5279 478.341 37.2933 476.807C37.0587 475.274 37.3643 473.707 38.1578 472.374C39.0223 470.964 40.5793 470.246 41.9853 470.751C40.6782 471.734 39.0535 472.311 38.59 474.002C38.355 474.579 38.2177 475.191 38.1838 475.813C38.2549 476.643 38.4662 477.456 38.8088 478.216C39.2661 479.248 40.0526 480.1 41.0456 480.638C42.0385 481.176 43.1819 481.371 44.2973 481.192C47.6301 480.562 48.8903 478.835 49.1819 474.231Z" fill="black"/>
<path d="M192.152 373.527C189.459 370.692 186.814 367.805 184.002 364.538C186.455 363.789 188.689 363.258 190.772 362.421C192.855 361.583 194.714 360.496 196.755 359.679C194.151 363.232 189.834 363.57 185.944 365.183C188.241 367.888 190.845 370.167 192.75 372.986L192.152 373.527Z" fill="black"/>
<path d="M183.726 38.8611C185.767 39.1629 188.111 43.0229 189.043 46.7893C190.303 51.9186 189.204 57.152 185.95 60.4137C186.142 59.6854 186.22 59.2797 186.361 58.8895C186.949 57.2508 187.736 55.659 188.126 53.9787C189.288 48.9898 187.642 44.6147 184.908 40.5206C184.528 39.9536 184.122 39.4126 183.726 38.8611Z" fill="black"/>
<path d="M2.12286 366.322C1.14387 366.432 0.414883 366.468 -0.298533 366.598C-2.3086 366.978 -3.32404 368.486 -2.77206 370.24C-2.39191 371.415 -1.54315 371.988 -0.210048 371.967C1.31052 371.967 2.9144 371.093 2.9144 370.011C2.9144 369.142 2.39369 368.263 2.10208 367.446C3.54974 367.488 4.48184 369.085 3.83091 370.729C3.23727 372.232 0.706475 373.387 -1.16819 373.033C-2.79291 372.726 -4.07392 370.916 -3.95415 369.079C-3.92133 368.41 -3.6962 367.764 -3.30557 367.219C-2.91495 366.673 -2.37537 366.252 -1.75142 366.005C-0.251687 365.282 0.716862 365.318 2.12286 366.322Z" fill="black"/>
<path d="M167.968 199.915C169.775 199.77 170.275 201.216 171.046 202.111C176.295 208.208 178.951 213.841 178.336 217.259C176.982 214.226 175.868 211.017 174.17 208.14C172.473 205.263 170.181 202.808 167.968 199.915Z" fill="black"/>
<path d="M122.508 127.782C120.581 129.4 119.597 131.704 117.009 132.864C117.285 131.215 118.41 130.742 119.05 129.93C119.691 129.119 120.503 128.229 121.206 127.361C121.909 126.492 122.555 125.613 123.414 124.494C123.773 126.653 123.935 128.547 124.455 130.367C124.976 132.188 125.664 133.874 126.091 135.694C123.836 133.582 123.581 130.601 122.508 127.782Z" fill="black"/>
<path d="M166.239 518.866C163.334 520.582 160.699 522.086 158.121 523.683C155.543 525.28 153.617 527.72 150.57 529.265C153.33 524.895 162.855 518.564 166.239 518.866Z" fill="black"/>
<path d="M193.11 54.1659C194.333 47.7672 193.068 42.2789 188.334 37.3317C189.267 37.4045 189.683 37.3317 189.839 37.4669C194.005 41.6287 195.838 48.6256 193.813 53.6717C193.771 53.7705 193.61 53.8226 193.11 54.1659Z" fill="black"/>
<path d="M110.984 493.812C111.859 499.077 112.692 504.107 113.525 509.138C112.421 508.212 112.249 506.968 112.01 505.793C111.38 502.791 110.838 499.768 110.307 496.746C110.13 495.747 109.942 494.691 110.984 493.812Z" fill="black"/>
<path d="M177.05 200.409C180.013 201.133 184.341 208.775 183.934 212.442C182.982 210.361 182.169 208.166 181.029 206.199C179.888 204.233 178.373 202.334 177.05 200.409Z" fill="black"/>
<path d="M151.279 546.193C153.497 545.995 162.907 548.383 164.224 549.428C163.308 549.881 163.308 549.876 160.022 548.96C158.554 548.554 157.08 548.128 155.585 547.811C154.091 547.493 152.628 547.181 151.279 546.193Z" fill="black"/>
<path d="M81.6136 535.918L69.8032 533.999C69.8917 533.042 70.7041 533.125 71.3237 533.198C73.2557 533.427 75.1824 533.718 77.104 534.046C77.9964 534.193 78.8784 534.398 79.7442 534.659C80.4367 534.873 81.0929 535.18 81.7594 535.481C81.7126 535.627 81.6657 535.773 81.6136 535.918Z" fill="black"/>
<path d="M136.729 510.412C138.031 506.469 141.327 502.937 144.358 501.901C144.301 502.271 144.358 502.718 144.191 502.807C141.749 504.19 140.135 506.38 138.463 508.529C137.92 509.188 137.341 509.816 136.729 510.412Z" fill="black"/>
<path d="M88.4409 555.718C86.5402 559.042 82.3065 563.464 80.812 563.838C81.2338 562.356 85.7278 557.492 88.4409 555.718Z" fill="black"/>
<path d="M84.5718 510.225C87.2484 510.277 92.3204 513.814 93.5858 516.499L84.5718 510.225Z" fill="black"/>
<path d="M216.189 411.722C215.642 409.641 217.038 403.44 218.428 401.255C218.006 405.099 217.522 408.496 216.189 411.722Z" fill="black"/>
<path d="M208.347 427.401L213.887 419.13L214.346 419.411C213.408 422.386 211.383 424.758 209.628 427.266C209.445 427.521 208.998 427.588 208.675 427.739L208.347 427.401Z" fill="black"/>
<path d="M208.815 380.145C207.519 379.624 203.129 375.166 201.562 372.924C203.738 373.642 207.816 377.621 208.815 380.145Z" fill="black"/>
<path d="M203.894 431.937C202.374 434.611 199.952 435.995 197.265 437.03C197.708 435.438 199.275 435.189 200.338 434.356C201.4 433.524 202.702 432.739 203.894 431.937Z" fill="black"/>
<path d="M217.012 394.971C216.733 395.007 216.452 395.007 216.173 394.971C215.314 392.37 214.481 389.769 213.846 387.1C215.965 389.248 216.304 392.042 217.012 394.971Z" fill="black"/>
<path d="M6.6112 76.2543C4.59073 76.7069 2.15367 74.7873 0.44043 71.2134L6.6112 76.2543Z" fill="black"/>
<path d="M140.9 341.269H148.191C145.223 342.512 142.228 342.517 140.9 341.269Z" fill="black"/>
<path d="M84.7438 353.145C84.4001 351.429 86.0613 349.108 89.1128 347.053C88.8785 348.068 86.2904 351.683 84.7438 353.145Z" fill="black"/>
<path d="M196.781 369.423C194.24 369.423 192.391 367.862 190.058 366.473C192.151 366.546 195.599 368.029 196.781 369.423Z" fill="black"/>
<path d="M126.091 341.727C123.788 342.004 121.454 341.865 119.201 341.316C120.441 340.057 121.716 340.853 122.846 340.795C123.976 340.738 125.06 341.107 126.174 341.316C126.132 341.446 126.111 341.586 126.091 341.727Z" fill="black"/>
<path d="M110.729 144.398C108.953 145.646 106.104 146.702 104.704 146.739C105.276 145.422 106.531 144.913 110.729 144.398Z" fill="black"/>
<path d="M99.2305 342.569C100.072 341.947 101.052 341.537 102.086 341.374C103.121 341.211 104.179 341.3 105.172 341.633C103.105 342.377 101.241 342.835 99.2305 342.569Z" fill="black"/>
<path d="M172.27 334.626C172.27 333.169 173.509 333.002 174.045 332.279C174.699 331.497 175.395 330.751 176.128 330.042C175.722 332.311 174.524 333.757 172.27 334.626Z" fill="black"/>
<path d="M98.9387 145.266C96.2101 145.937 94.1219 145.292 93.0752 143.56L98.9387 145.266Z" fill="black"/>
<path d="M120.18 136.204C119.399 138.452 117.155 140.803 115.561 141.011C116.691 138.982 118.305 137.63 120.18 136.204Z" fill="black"/>
<path d="M163.761 338.267C162.651 339.932 160.943 340.52 159.241 341.097C158.72 340.358 158.991 340.057 159.527 339.864L163.761 338.267Z" fill="black"/>
<path d="M84.8789 140.064C86.1495 139.825 87.2066 140.147 88.3419 141.36C86.7744 141.344 85.6913 141.131 84.8789 140.064Z" fill="black"/>
<path d="M4.92945 413.855H-4.83445C-4.41786 412.226 -2.88166 411.482 -1.89746 410.317C-0.91326 409.152 0.185518 408.049 0.524 406.582C-0.0644379 405.51 -0.866383 405.656 -1.49648 406.171C-3.10678 407.388 -4.60865 408.742 -5.98527 410.218C-9.7294 414.609 -9.58359 414.151 -14.3171 413.985C-16.4834 413.912 -18.6497 413.818 -20.8108 413.636C-22.2897 413.511 -22.524 413.251 -22.5397 411.826C-22.5813 408.398 -22.6022 404.964 -22.5397 401.536C-22.498 399.455 -21.7325 398.872 -19.5975 398.524C-16.6553 398.045 -13.7495 398.352 -10.8126 398.498C-7.03197 398.68 -3.24615 398.581 0.539639 398.612C1.58112 398.612 2.6226 398.612 3.66409 398.696C5.12216 398.779 5.4606 398.956 5.50226 400.391C5.58558 403.18 5.52834 405.979 5.4242 408.767C5.36691 410.426 5.11171 412.076 4.92945 413.855ZM3.88797 412.611C4.10147 408.221 5.4502 404.059 4.15355 399.554C3.38286 399.554 2.62778 399.554 1.8727 399.554C-2.75669 399.512 -7.38608 399.45 -12.0207 399.429C-14.3901 399.429 -16.7646 399.398 -19.1288 399.528C-21.2117 399.637 -21.5971 400.111 -21.644 402.264C-21.7065 404.782 -21.7377 407.305 -21.7169 409.828C-21.7169 410.869 -21.5398 411.857 -21.4357 412.986H-11.1198C-10.0314 412.986 -9.30759 412.388 -8.64625 411.623C-7.54749 410.348 -6.49041 409.022 -5.28749 407.862C-4.23604 406.843 -3.08263 405.935 -1.8454 405.151C-0.731012 404.454 0.404215 404.631 1.0291 405.365C1.65399 406.098 1.66443 407.336 0.987469 408.32C0.310503 409.303 -0.611191 410.26 -1.40272 411.233C-1.72037 411.623 -1.99117 412.044 -2.39735 412.611H3.88797Z" fill="black"/>
<path d="M19.5833 6.91979C17.8909 8.8654 16.3495 10.9671 14.4592 12.6838C13.4177 13.615 11.8555 13.9323 10.4755 14.4369C8.64252 15.1132 7.90825 16.2109 8.16862 18.1253C8.20001 18.6549 8.38176 19.1646 8.69254 19.5949C9.00332 20.0251 9.43033 20.358 9.92358 20.5547C11.0276 20.9813 12.168 21.3038 13.3032 21.6523C15.105 22.209 16.9483 22.6564 18.7136 23.3066C21.5985 24.3471 23.4004 26.7505 25.4 28.9302C26.1871 29.8205 27.0233 30.6663 27.9047 31.4636C28.461 31.9515 29.1159 32.3141 29.8248 32.5268C30.5337 32.7396 31.2801 32.7974 32.0134 32.6966C33.7058 32.5249 34.5494 31.7394 34.7629 30.0695C34.8124 29.6513 34.8124 29.2287 34.7629 28.8105C34.4831 26.2283 34.8685 23.6174 35.8825 21.2258C36.2731 20.2998 36.2574 19.1761 36.3095 18.1409C36.3512 17.2877 35.7888 16.882 34.9608 16.9028C34.7473 16.9028 34.539 16.9496 34.3307 16.9496C32.1124 16.9912 31.5812 16.5438 31.3313 14.4161C31.0813 12.2884 31.0031 10.1035 30.5657 8.00705C29.9929 5.24989 27.4049 3.84531 24.6762 4.5372C24.0669 4.69326 23.4733 4.90655 22.8692 5.09383C23.0827 4.85973 23.2598 4.46957 23.5097 4.41754C24.4533 4.15551 25.4259 4.0122 26.405 3.99097C29.3628 4.08461 30.9355 5.42677 31.4458 8.34519C31.7843 10.2648 31.8832 12.226 32.1227 14.1664C32.3466 15.9924 32.5185 16.1224 34.3411 16.1224C36.5699 16.1224 37.5385 17.2045 37.2573 19.4206C37.2208 19.9811 37.096 20.5324 36.8875 21.0541C35.5805 23.7228 35.4607 26.584 35.5492 29.4504C35.6065 31.292 34.9296 32.6341 33.2736 33.3312C31.6177 34.0283 29.9356 34.0283 28.5036 32.8682C26.9957 31.7294 25.6132 30.4337 24.3793 29.003C21.8189 25.8081 18.1639 23.6748 14.1207 23.0153C12.3151 22.7456 10.5828 22.1139 9.02786 21.1581C7.46563 20.1177 7.14802 18.5883 7.31466 16.9288C7.4813 15.2693 8.17904 13.8075 10.0016 13.6098C13.1261 13.2768 14.7717 10.9359 16.813 9.07349C17.6722 8.28796 18.6564 7.63249 19.5833 6.91979Z" fill="black"/>
<path d="M40.7671 30.2983C42.7042 29.903 43.9592 28.7377 44.2612 26.8805C44.4279 25.8401 44.131 24.6124 42.6365 24.2794C41.2201 25.6112 40.7826 27.4007 40.3921 29.7417C40.141 29.322 39.9384 28.8752 39.7881 28.41C39.7242 27.6752 39.8175 26.9353 40.0617 26.2393C40.3059 25.5434 40.6954 24.9072 41.2045 24.3731C41.7505 23.8633 42.4724 23.5838 43.2197 23.5927C44.1258 23.5927 44.6413 24.3575 44.8965 25.2418C45.6568 27.9418 43.8551 30.2359 40.7671 30.2983Z" fill="black"/>
<path d="M22.0881 5.03662C21.635 6.22792 20.5259 6.59727 19.4844 6.99264L22.0881 5.03662Z" fill="black"/>
<path d="M40.7198 69.1222C40.8708 69.9181 41.027 70.4539 41.0687 70.9949C41.2041 72.7117 40.6625 73.4608 38.9857 73.8509C36.5434 74.4232 34.0856 74.9278 31.6537 75.5364C29.5707 76.0567 27.4878 76.6861 25.4048 77.2792C23.6921 77.7655 21.8942 77.8755 20.1349 77.6017C19.908 77.0202 19.7338 76.4195 19.6142 75.807C19.4683 74.4284 20.2182 73.5752 21.5669 73.2943C23.4729 72.8989 25.3631 72.4151 27.2586 71.9938C28.55 71.7024 29.8624 71.4735 31.1434 71.1718C33.5128 70.5996 35.8665 69.9545 38.2462 69.3979C39.0648 69.2585 39.8906 69.1665 40.7198 69.1222ZM39.5065 70.3239L20.8743 74.7197V76.9826C21.1905 76.97 21.5055 76.9352 21.8169 76.8786C25.2746 76.0098 28.7167 75.1047 32.1797 74.2775C34.3564 73.7573 36.5643 73.3463 38.7358 72.8053C40.3188 72.3891 40.4646 71.7701 39.5065 70.3239Z" fill="black"/>
<path d="M74.3808 291.541C74.3536 290.758 74.5116 289.98 74.8419 289.27C75.1721 288.559 75.6653 287.937 76.2815 287.452C76.5994 287.181 76.9649 286.971 77.3594 286.833C79.6455 286.053 81.1504 287.811 82.723 288.81C83.978 289.611 83.7645 291.349 83.1552 292.691C82.3273 294.543 80.9369 295.77 78.7811 295.755C76.068 295.734 74.1204 293.846 74.3808 291.541ZM75.4587 291.437C75.4438 291.875 75.5182 292.311 75.6773 292.719C75.8365 293.127 76.077 293.499 76.3843 293.811C76.6917 294.124 77.0594 294.37 77.4652 294.536C77.8709 294.702 78.3062 294.784 78.7446 294.777C80.5307 294.813 82.3221 292.977 82.3586 291.068C82.3898 289.299 80.713 287.79 78.7134 287.78C76.8856 287.77 75.5056 289.367 75.4587 291.447V291.437Z" fill="black"/>
</g>
<defs>
<clipPath id="clip0_56_2663">
<rect width="916" height="651" fill="white" transform="translate(-690 -52)"/>
</clipPath>
</defs>
</svg>
