<svg width="134" height="16" viewBox="0 0 134 16" fill="none" xmlns="http://www.w3.org/2000/svg">
<g id="Group 7">
<g id="Instagram">
<path id="Shape" fill-rule="evenodd" clip-rule="evenodd" d="M49.0007 0C46.828 0 46.5553 0.00941568 45.702 0.0479043C44.8503 0.0865581 44.269 0.220195 43.7603 0.416272C43.2342 0.618792 42.7878 0.889699 42.3432 1.33058C41.8982 1.7713 41.6248 2.21367 41.4198 2.73501C41.2215 3.23932 41.0865 3.81566 41.0482 4.65944C41.01 5.5052 41 5.77561 41 7.92899C41 10.0824 41.0097 10.3518 41.0483 11.1975C41.0875 12.0417 41.2223 12.6178 41.42 13.122C41.6245 13.6435 41.8978 14.0858 42.3427 14.5266C42.7872 14.9676 43.2335 15.2392 43.7593 15.4417C44.2683 15.6378 44.8498 15.7714 45.7013 15.8101C46.5547 15.8486 46.8272 15.858 48.9997 15.858C51.1725 15.858 51.4443 15.8486 52.2977 15.8101C53.1493 15.7714 53.7313 15.6378 54.2403 15.4417C54.7663 15.2392 55.212 14.9676 55.6565 14.5266C56.1015 14.0858 56.3748 13.6435 56.5798 13.1221C56.7765 12.6178 56.9115 12.0415 56.9515 11.1977C56.9898 10.352 56.9998 10.0824 56.9998 7.92899C56.9998 5.77561 56.9898 5.50536 56.9515 4.6596C56.9115 3.8155 56.7765 3.23932 56.5798 2.73517C56.3748 2.21367 56.1015 1.7713 55.6565 1.33058C55.2115 0.889534 54.7665 0.618626 54.2398 0.416272C53.7298 0.220195 53.1482 0.0865581 52.2965 0.0479043C51.4432 0.00941568 51.1715 0 48.9982 0H49.0007ZM48.283 1.42972C48.496 1.42939 48.7337 1.42972 49.0007 1.42972C51.1367 1.42972 51.3899 1.43732 52.2334 1.47531C53.0134 1.51066 53.4367 1.63983 53.7187 1.74836C54.092 1.89208 54.3582 2.06387 54.638 2.34139C54.918 2.6189 55.0914 2.8832 55.2367 3.25322C55.3462 3.53239 55.4767 3.95196 55.5122 4.72504C55.5505 5.56088 55.5589 5.81197 55.5589 7.92802C55.5589 10.0441 55.5505 10.2952 55.5122 11.131C55.4765 11.9041 55.3462 12.3237 55.2367 12.6028C55.0917 12.9728 54.918 13.2363 54.638 13.5137C54.358 13.7912 54.0922 13.963 53.7187 14.1067C53.437 14.2157 53.0134 14.3446 52.2334 14.3799C51.39 14.4179 51.1367 14.4262 49.0007 14.4262C46.8645 14.4262 46.6114 14.4179 45.768 14.3799C44.988 14.3442 44.5647 14.215 44.2825 14.1065C43.9092 13.9628 43.6425 13.791 43.3625 13.5135C43.0825 13.236 42.9092 12.9723 42.7639 12.6022C42.6544 12.323 42.5239 11.9034 42.4884 11.1303C42.45 10.2945 42.4424 10.0434 42.4424 7.92604C42.4424 5.80867 42.45 5.5589 42.4884 4.72305C42.524 3.94998 42.6544 3.5304 42.7639 3.25091C42.9089 2.88089 43.0825 2.61659 43.3625 2.33907C43.6425 2.06156 43.9092 1.88976 44.2825 1.74572C44.5645 1.6367 44.988 1.50785 45.768 1.47233C46.506 1.4393 46.792 1.42939 48.283 1.42773V1.42972ZM53.271 2.74447C52.741 2.74447 52.311 3.17016 52.311 3.69562C52.311 4.22091 52.741 4.6471 53.271 4.6471C53.801 4.6471 54.231 4.22091 54.231 3.69562C54.231 3.17032 53.801 2.74414 53.271 2.74414V2.74447ZM49.0009 3.85724C46.7321 3.85724 44.8926 5.68042 44.8926 7.92911C44.8926 10.1778 46.7321 12.0002 49.0009 12.0002C51.2697 12.0002 53.1086 10.1778 53.1086 7.92911C53.1086 5.68042 51.2696 3.85724 49.0007 3.85724H49.0009ZM49.0007 5.28711C50.4733 5.28711 51.6673 6.47035 51.6673 7.93011C51.6673 9.3897 50.4733 10.5731 49.0007 10.5731C47.5278 10.5731 46.334 9.3897 46.334 7.93011C46.334 6.47035 47.5278 5.28711 49.0007 5.28711Z" fill="#0F001A"/>
</g>
<g id="Twitter">
<path id="Shape_2" fill-rule="evenodd" clip-rule="evenodd" d="M123.934 4.21847L123.976 4.90438L123.277 4.82039C120.731 4.49843 118.506 3.40659 116.618 1.57285L115.694 0.662982L115.457 1.33489C114.953 2.83267 115.275 4.41445 116.324 5.4783C116.883 6.06621 116.758 6.1502 115.792 5.80025C115.457 5.68827 115.163 5.60428 115.135 5.64627C115.037 5.74426 115.373 7.01808 115.638 7.522C116.002 8.2219 116.744 8.90781 117.555 9.31375L118.24 9.6357L117.429 9.6497C116.646 9.6497 116.618 9.6637 116.702 9.95766C116.981 10.8675 118.087 11.8334 119.318 12.2533L120.185 12.5473L119.43 12.9952C118.31 13.6391 116.995 14.0031 115.68 14.0311C115.051 14.0451 114.533 14.1011 114.533 14.1431C114.533 14.283 116.24 15.0669 117.233 15.3749C120.213 16.2848 123.752 15.8928 126.41 14.339C128.299 13.2332 130.188 11.0355 131.069 8.90781C131.545 7.77397 132.02 5.70226 132.02 4.70841C132.02 4.0645 132.062 3.98051 132.846 3.21062C133.307 2.76268 133.741 2.27275 133.825 2.13277C133.965 1.86681 133.951 1.86681 133.237 2.10478C132.048 2.52472 131.88 2.46872 132.468 1.83881C132.902 1.39088 133.419 0.578994 133.419 0.341027C133.419 0.299033 133.209 0.369023 132.971 0.495006C132.72 0.634986 132.16 0.844956 131.74 0.970938L130.985 1.2089L130.299 0.74697C129.922 0.495005 129.39 0.215045 129.11 0.131057C128.397 -0.0649147 127.306 -0.0369187 126.662 0.187049C124.913 0.81696 123.808 2.44073 123.934 4.21847Z" fill="#0F001A"/>
</g>
<g id="Youtube">
<path id="Fill 1" fill-rule="evenodd" clip-rule="evenodd" d="M21.7957 2.47627C21.5397 1.50152 20.7853 0.733943 19.8275 0.473437C18.0916 0 11.1304 0 11.1304 0C11.1304 0 4.16923 0 2.43327 0.473437C1.47542 0.733943 0.721075 1.50152 0.465075 2.47627C0 4.2429 0 7.92899 0 7.92899C0 7.92899 0 11.6149 0.465075 13.3817C0.721075 14.3565 1.47542 15.124 2.43327 15.3847C4.16923 15.858 11.1304 15.858 11.1304 15.858C11.1304 15.858 18.0916 15.858 19.8275 15.3847C20.7853 15.124 21.5397 14.3565 21.7957 13.3817C22.2609 11.6149 22.2609 7.92899 22.2609 7.92899C22.2609 7.92899 22.2609 4.2429 21.7957 2.47627Z" fill="#0F001A"/>
<path id="Fill 2" fill-rule="evenodd" clip-rule="evenodd" d="M9.04395 11.7211V4.82634L14.6092 8.27385L9.04395 11.7211Z" fill="white"/>
</g>
<g id="Facebook">
<path id="Shape_3" fill-rule="evenodd" clip-rule="evenodd" d="M86.9643 15.858V7.92807H89.1729L89.4656 5.19537H86.9643L86.968 3.82763C86.968 3.1149 87.0364 2.73301 88.0692 2.73301H89.4499V4.52995e-06H87.241C84.5878 4.52995e-06 83.6539 1.32565 83.6539 3.55498V5.19568H82V7.92837H83.6539V15.858H86.9643Z" fill="#0F001A"/>
</g>
</g>
</svg>
