<svg width="210" height="84" viewBox="0 0 210 84" fill="none" xmlns="http://www.w3.org/2000/svg">
<g id="Group 1138">
<g id="Group 76">
<g id="Oval Copy" filter="url(#filter0_dd_56_3122)">
<path fill-rule="evenodd" clip-rule="evenodd" d="M35 67C48.8071 67 60 55.8071 60 42C60 28.1929 48.8071 17 35 17C21.1929 17 10 28.1929 10 42C10 55.8071 21.1929 67 35 67Z" fill="white"/>
<path d="M58.5 42C58.5 54.9787 47.9787 65.5 35 65.5C22.0213 65.5 11.5 54.9787 11.5 42C11.5 29.0213 22.0213 18.5 35 18.5C47.9787 18.5 58.5 29.0213 58.5 42Z" stroke="white" stroke-width="3"/>
</g>
<path id="Shape" d="M33.699 49.393L33.6786 43.0961H31V40.3974H33.6786V38.5983C33.6786 36.1702 35.171 35 37.3209 35C38.3507 35 39.2358 35.0772 39.4937 35.1118V37.6493L38.0026 37.65C36.8334 37.65 36.607 38.2097 36.607 39.0312V40.3974H39.9286L39.0357 43.0961H36.607V49.393H33.699Z" fill="#0A142F"/>
</g>
<g id="Group 12">
<g id="Oval Copy_2" filter="url(#filter1_dd_56_3122)">
<path fill-rule="evenodd" clip-rule="evenodd" d="M175 67C188.807 67 200 55.8071 200 42C200 28.1929 188.807 17 175 17C161.193 17 150 28.1929 150 42C150 55.8071 161.193 67 175 67Z" fill="white"/>
<path d="M198.5 42C198.5 54.9787 187.979 65.5 175 65.5C162.021 65.5 151.5 54.9787 151.5 42C151.5 29.0213 162.021 18.5 175 18.5C187.979 18.5 198.5 29.0213 198.5 42Z" stroke="white" stroke-width="3"/>
</g>
<g id="logo-twitter">
<path id="Shape_2" d="M182.286 37.3493C181.75 37.6192 181.214 37.7092 180.589 37.7991C181.214 37.4393 181.661 36.8996 181.839 36.1799C181.304 36.5397 180.679 36.7197 179.964 36.8996C179.429 36.3598 178.625 36 177.821 36C176.304 36 174.964 37.3493 174.964 38.9686C174.964 39.2384 174.964 39.4183 175.054 39.5983C172.643 39.5083 170.411 38.3389 168.982 36.5397C168.714 36.9895 168.625 37.4393 168.625 38.069C168.625 39.0585 169.161 39.9581 169.964 40.4978C169.518 40.4978 169.071 40.3179 168.625 40.138C168.625 41.5773 169.607 42.7467 170.946 43.0166C170.679 43.1066 170.411 43.1066 170.143 43.1066C169.964 43.1066 169.786 43.1066 169.607 43.0166C169.964 44.186 171.036 45.0856 172.375 45.0856C171.393 45.8952 170.143 46.345 168.714 46.345C168.446 46.345 168.268 46.345 168 46.345C169.339 47.1546 170.857 47.6943 172.464 47.6943C177.821 47.6943 180.768 43.1965 180.768 39.3284C180.768 39.2384 180.768 39.0585 180.768 38.9686C181.393 38.5188 181.929 37.979 182.286 37.3493Z" fill="#0A142F"/>
</g>
</g>
<g id="Group 11">
<g id="Oval Copy_3" filter="url(#filter2_dd_56_3122)">
<path fill-rule="evenodd" clip-rule="evenodd" d="M105 67C118.807 67 130 55.8071 130 42C130 28.1929 118.807 17 105 17C91.1929 17 80 28.1929 80 42C80 55.8071 91.1929 67 105 67Z" fill="white"/>
<path d="M128.5 42C128.5 54.9787 117.979 65.5 105 65.5C92.0213 65.5 81.5 54.9787 81.5 42C81.5 29.0213 92.0213 18.5 105 18.5C117.979 18.5 128.5 29.0213 128.5 42Z" stroke="white" stroke-width="3"/>
</g>
<g id="16px-logo-instagram">
<path id="Oval" d="M108.868 39.9423C109.299 39.9423 109.648 39.5931 109.648 39.1623C109.648 38.7315 109.299 38.3823 108.868 38.3823C108.437 38.3823 108.088 38.7315 108.088 39.1623C108.088 39.5931 108.437 39.9423 108.868 39.9423Z" fill="#0A142F"/>
<path id="Shape_3" fill-rule="evenodd" clip-rule="evenodd" d="M102.25 42.5C102.25 44.2924 103.708 45.75 105.5 45.75C107.292 45.75 108.75 44.2924 108.75 42.5C108.75 40.7076 107.292 39.25 105.5 39.25C103.708 39.25 102.25 40.7076 102.25 42.5ZM103.875 42.5C103.875 41.6038 104.604 40.875 105.5 40.875C106.396 40.875 107.125 41.6038 107.125 42.5C107.125 43.3962 106.396 44.125 105.5 44.125C104.604 44.125 103.875 43.3962 103.875 42.5Z" fill="#0A142F"/>
<path id="Shape_4" fill-rule="evenodd" clip-rule="evenodd" d="M102.25 49H108.75C110.42 49 112 47.4205 112 45.75V39.25C112 37.5795 110.42 36 108.75 36H102.25C100.579 36 99 37.5795 99 39.25V45.75C99 47.4205 100.579 49 102.25 49ZM100.625 39.25C100.625 38.4903 101.49 37.625 102.25 37.625H108.75C109.51 37.625 110.375 38.4903 110.375 39.25V45.75C110.375 46.5097 109.51 47.375 108.75 47.375H102.25C101.476 47.375 100.625 46.5243 100.625 45.75V39.25Z" fill="#0A142F"/>
</g>
</g>
</g>
<defs>
<filter id="filter0_dd_56_3122" x="0" y="0" width="70" height="84" filterUnits="userSpaceOnUse" color-interpolation-filters="sRGB">
<feFlood flood-opacity="0" result="BackgroundImageFix"/>
<feColorMatrix in="SourceAlpha" type="matrix" values="0 0 0 0 0 0 0 0 0 0 0 0 0 0 0 0 0 0 127 0" result="hardAlpha"/>
<feOffset dy="7"/>
<feGaussianBlur stdDeviation="5"/>
<feColorMatrix type="matrix" values="0 0 0 0 0.294118 0 0 0 0 0.294118 0 0 0 0 0.294118 0 0 0 0.1 0"/>
<feBlend mode="normal" in2="BackgroundImageFix" result="effect1_dropShadow_56_3122"/>
<feColorMatrix in="SourceAlpha" type="matrix" values="0 0 0 0 0 0 0 0 0 0 0 0 0 0 0 0 0 0 127 0" result="hardAlpha"/>
<feOffset dy="-7"/>
<feGaussianBlur stdDeviation="5"/>
<feColorMatrix type="matrix" values="0 0 0 0 0.294118 0 0 0 0 0.294118 0 0 0 0 0.294118 0 0 0 0.01 0"/>
<feBlend mode="normal" in2="effect1_dropShadow_56_3122" result="effect2_dropShadow_56_3122"/>
<feBlend mode="normal" in="SourceGraphic" in2="effect2_dropShadow_56_3122" result="shape"/>
</filter>
<filter id="filter1_dd_56_3122" x="140" y="0" width="70" height="84" filterUnits="userSpaceOnUse" color-interpolation-filters="sRGB">
<feFlood flood-opacity="0" result="BackgroundImageFix"/>
<feColorMatrix in="SourceAlpha" type="matrix" values="0 0 0 0 0 0 0 0 0 0 0 0 0 0 0 0 0 0 127 0" result="hardAlpha"/>
<feOffset dy="7"/>
<feGaussianBlur stdDeviation="5"/>
<feColorMatrix type="matrix" values="0 0 0 0 0.294118 0 0 0 0 0.294118 0 0 0 0 0.294118 0 0 0 0.1 0"/>
<feBlend mode="normal" in2="BackgroundImageFix" result="effect1_dropShadow_56_3122"/>
<feColorMatrix in="SourceAlpha" type="matrix" values="0 0 0 0 0 0 0 0 0 0 0 0 0 0 0 0 0 0 127 0" result="hardAlpha"/>
<feOffset dy="-7"/>
<feGaussianBlur stdDeviation="5"/>
<feColorMatrix type="matrix" values="0 0 0 0 0.294118 0 0 0 0 0.294118 0 0 0 0 0.294118 0 0 0 0.01 0"/>
<feBlend mode="normal" in2="effect1_dropShadow_56_3122" result="effect2_dropShadow_56_3122"/>
<feBlend mode="normal" in="SourceGraphic" in2="effect2_dropShadow_56_3122" result="shape"/>
</filter>
<filter id="filter2_dd_56_3122" x="70" y="0" width="70" height="84" filterUnits="userSpaceOnUse" color-interpolation-filters="sRGB">
<feFlood flood-opacity="0" result="BackgroundImageFix"/>
<feColorMatrix in="SourceAlpha" type="matrix" values="0 0 0 0 0 0 0 0 0 0 0 0 0 0 0 0 0 0 127 0" result="hardAlpha"/>
<feOffset dy="7"/>
<feGaussianBlur stdDeviation="5"/>
<feColorMatrix type="matrix" values="0 0 0 0 0.294118 0 0 0 0 0.294118 0 0 0 0 0.294118 0 0 0 0.1 0"/>
<feBlend mode="normal" in2="BackgroundImageFix" result="effect1_dropShadow_56_3122"/>
<feColorMatrix in="SourceAlpha" type="matrix" values="0 0 0 0 0 0 0 0 0 0 0 0 0 0 0 0 0 0 127 0" result="hardAlpha"/>
<feOffset dy="-7"/>
<feGaussianBlur stdDeviation="5"/>
<feColorMatrix type="matrix" values="0 0 0 0 0.294118 0 0 0 0 0.294118 0 0 0 0 0.294118 0 0 0 0.01 0"/>
<feBlend mode="normal" in2="effect1_dropShadow_56_3122" result="effect2_dropShadow_56_3122"/>
<feBlend mode="normal" in="SourceGraphic" in2="effect2_dropShadow_56_3122" result="shape"/>
</filter>
</defs>
</svg>
