<svg width="26" height="24" viewBox="0 0 26 24" fill="none" xmlns="http://www.w3.org/2000/svg">
<g id="Icon">
<path id="Path" d="M0.768598 0C0.423396 0 0.143555 0.261185 0.143555 0.583374V22.9683C0.143555 23.2543 0.262249 23.5274 0.471308 23.7225C0.662349 23.9008 0.913935 24 1.17526 24H25.2328C25.578 24 25.8578 23.7388 25.8578 23.4166C25.8578 23.0944 25.578 22.8333 25.2328 22.8333H3.39364C2.28907 22.8333 1.39364 21.9378 1.39364 20.8333V0.583374C1.39364 0.261185 1.1138 0 0.768598 0Z" fill="#C11574"/>
<path id="Shape" fill-rule="evenodd" clip-rule="evenodd" d="M5.76866 15.1478C4.6376 15.1357 3.64777 15.855 3.38303 16.8814C3.1183 17.9078 3.64897 18.9687 4.66203 19.4383C5.6751 19.908 6.90147 19.6616 7.61778 18.8445C8.33408 18.0274 8.35007 16.8567 7.6563 16.0229L10.5815 12.0209C10.8354 12.1013 11.101 12.1446 11.3691 12.1493C12.054 12.1552 12.709 11.8877 13.1692 11.4142L15.7694 13.141C15.7294 13.3096 15.7084 13.4817 15.7069 13.6544C15.7069 14.8916 16.7814 15.8945 18.107 15.8945C19.4326 15.8945 20.5072 14.8916 20.5072 13.6544C20.5053 13.1475 20.3153 12.6569 19.9697 12.2659L22.7573 8.28732C23.8923 8.62131 25.117 8.11978 25.6221 7.11408C26.1273 6.10837 25.757 4.90899 24.7559 4.30835C23.7549 3.70771 22.4321 3.89125 21.6615 4.73771C20.8909 5.58417 20.9105 6.83221 21.7073 7.65727L18.9321 11.5775C18.6564 11.4799 18.3644 11.4286 18.0695 11.4259C17.4142 11.4255 16.7869 11.6741 16.3319 12.1143L13.7192 10.4108C13.7322 10.2594 13.7322 10.1072 13.7192 9.95577C13.7701 8.94348 13.0865 8.02538 12.0522 7.71693C11.018 7.40848 9.89063 7.78651 9.30316 8.63877C8.7157 9.49104 8.81443 10.6053 9.54393 11.3559L6.65623 15.3111C6.37459 15.2033 6.07309 15.1478 5.76866 15.1478ZM23.4574 5.1021C24.0926 5.1021 24.6075 5.58268 24.6075 6.17551C24.6075 6.76834 24.0926 7.24892 23.4574 7.24892C22.8222 7.24892 22.3073 6.76834 22.3073 6.17551C22.3073 5.58268 22.8222 5.1021 23.4574 5.1021ZM19.2196 13.6544C19.2196 13.0615 18.7047 12.581 18.0695 12.581C17.4343 12.581 16.9194 13.0615 16.9194 13.6544C16.9194 14.2472 17.4343 14.7278 18.0695 14.7278C18.7047 14.7278 19.2196 14.2472 19.2196 13.6544ZM11.369 8.83568C12.0042 8.83568 12.5191 9.31626 12.5191 9.90908C12.5191 10.5019 12.0042 10.9825 11.369 10.9825C10.7338 10.9825 10.2189 10.5019 10.2189 9.90908C10.2189 9.31626 10.7338 8.83568 11.369 8.83568ZM4.70395 17.7931C4.8804 18.1971 5.30126 18.4612 5.76867 18.4613C6.39421 18.4615 6.90515 17.995 6.91875 17.4113C6.92891 16.9751 6.65524 16.5766 6.22639 16.4031C5.79754 16.2296 5.29882 16.3155 4.9647 16.6206C4.63057 16.9257 4.52751 17.3892 4.70395 17.7931Z" fill="#C11574"/>
</g>
</svg>
