<svg width="28" height="26" viewBox="0 0 28 26" fill="none" xmlns="http://www.w3.org/2000/svg">
<g id="Icon">
<path id="Path" d="M1.29076 17.3083C1.05156 17.3083 0.857422 17.1229 0.857422 16.8945V2.24138C0.857422 1.55697 1.44069 1 2.15742 1H25.5574C26.2742 1 26.8574 1.55697 26.8574 2.24138V6.30629C26.8574 6.5347 26.6633 6.72008 26.4241 6.72008C26.1849 6.72008 25.9908 6.5347 25.9908 6.30629V2.24138C25.9908 2.01379 25.7958 1.82759 25.5574 1.82759H2.15742C1.91909 1.82759 1.72409 2.01379 1.72409 2.24138V16.8945C1.72409 17.1229 1.52996 17.3083 1.29076 17.3083Z" fill="#252525" stroke="#252525" stroke-width="0.6"/>
<path id="Path_2" d="M13.8572 25H9.09056C8.85136 25 8.65723 24.8146 8.65723 24.5862C8.65723 24.3578 8.85136 24.1724 9.09056 24.1724H9.95723C10.674 24.1724 11.2572 23.6154 11.2572 22.931V20.862C11.2572 20.6336 11.4514 20.4482 11.6906 20.4482C11.9298 20.4482 12.1239 20.6336 12.1239 20.862V22.931C12.1239 23.3969 11.9618 23.8264 11.6897 24.1724H13.8572C14.0964 24.1724 14.2906 24.3578 14.2906 24.5862C14.2906 24.8146 14.0964 25 13.8572 25Z" fill="#252525" stroke="#252525" stroke-width="0.6"/>
<path id="Path_3" d="M14.8685 20.8621H2.15742C1.44069 20.8621 0.857422 20.3051 0.857422 19.6207V17.1379C0.857422 16.9095 1.05156 16.7241 1.29076 16.7241H14.8685C15.1077 16.7241 15.3019 16.9095 15.3019 17.1379C15.3019 17.3663 15.1077 17.5517 14.8685 17.5517H1.72409V19.6207C1.72409 19.8483 1.91909 20.0345 2.15742 20.0345H14.8685C15.1077 20.0345 15.3019 20.2198 15.3019 20.4483C15.3019 20.6767 15.1077 20.8621 14.8685 20.8621Z" fill="#252525" stroke="#252525" stroke-width="0.6"/>
<path id="Path_4" d="M18.6238 6.79316H22.9571C23.1963 6.79316 23.3904 6.60778 23.3904 6.37937C23.3904 6.15096 23.1963 5.96558 22.9571 5.96558H18.6238C18.3846 5.96558 18.1904 6.15096 18.1904 6.37937C18.1904 6.60778 18.3846 6.79316 18.6238 6.79316Z" fill="#252525" stroke="#252525" stroke-width="0.6"/>
<path id="Path_5" d="M20.3572 23.3448H21.2238C21.463 23.3448 21.6572 23.1594 21.6572 22.931C21.6572 22.7026 21.463 22.5172 21.2238 22.5172H20.3572C20.118 22.5172 19.9238 22.7026 19.9238 22.931C19.9238 23.1594 20.118 23.3448 20.3572 23.3448Z" fill="#252525" stroke="#252525" stroke-width="0.6"/>
<g id="Shape">
<path fill-rule="evenodd" clip-rule="evenodd" d="M16.8903 25H24.6903C25.8854 25 26.857 24.0722 26.857 22.931V6.37927C26.857 5.23803 25.8854 4.3103 24.6903 4.3103H16.8903C15.6952 4.3103 14.7236 5.23803 14.7236 6.37927V22.931C14.7236 24.0722 15.6952 25 16.8903 25ZM15.5903 6.37927C15.5903 5.69485 16.1736 5.13789 16.8903 5.13789H24.6903C25.407 5.13789 25.9903 5.69485 25.9903 6.37927V22.931C25.9903 23.6154 25.407 24.1724 24.6903 24.1724H16.8903C16.1736 24.1724 15.5903 23.6154 15.5903 22.931V6.37927Z" fill="#252525"/>
<path d="M24.6903 24.7H16.8903V25.3H24.6903V24.7ZM26.557 22.931C26.557 23.8937 25.7329 24.7 24.6903 24.7V25.3C26.0379 25.3 27.157 24.2508 27.157 22.931H26.557ZM26.557 6.37927V22.931H27.157V6.37927H26.557ZM24.6903 4.6103C25.7329 4.6103 26.557 5.41661 26.557 6.37927H27.157C27.157 5.05945 26.0379 4.0103 24.6903 4.0103V4.6103ZM16.8903 4.6103H24.6903V4.0103H16.8903V4.6103ZM15.0236 6.37927C15.0236 5.41661 15.8477 4.6103 16.8903 4.6103V4.0103C15.5427 4.0103 14.4236 5.05945 14.4236 6.37927H15.0236ZM15.0236 22.931V6.37927H14.4236V22.931H15.0236ZM16.8903 24.7C15.8477 24.7 15.0236 23.8937 15.0236 22.931H14.4236C14.4236 24.2508 15.5427 25.3 16.8903 25.3V24.7ZM16.8903 4.83789C16.0211 4.83789 15.2903 5.51627 15.2903 6.37927H15.8903C15.8903 5.87343 16.3261 5.43789 16.8903 5.43789V4.83789ZM24.6903 4.83789H16.8903V5.43789H24.6903V4.83789ZM26.2903 6.37927C26.2903 5.51627 25.5595 4.83789 24.6903 4.83789V5.43789C25.2545 5.43789 25.6903 5.87343 25.6903 6.37927H26.2903ZM26.2903 22.931V6.37927H25.6903V22.931H26.2903ZM24.6903 24.4724C25.5595 24.4724 26.2903 23.794 26.2903 22.931H25.6903C25.6903 23.4368 25.2545 23.8724 24.6903 23.8724V24.4724ZM16.8903 24.4724H24.6903V23.8724H16.8903V24.4724ZM15.2903 22.931C15.2903 23.794 16.0211 24.4724 16.8903 24.4724V23.8724C16.3261 23.8724 15.8903 23.4368 15.8903 22.931H15.2903ZM15.2903 6.37927V22.931H15.8903V6.37927H15.2903Z" fill="#252525"/>
</g>
</g>
</svg>
