<svg width="794" height="577" viewBox="0 0 794 577" fill="none" xmlns="http://www.w3.org/2000/svg">
<g opacity="0.6">
<g opacity="0.2">
<path d="M396.798 539.997C376.48 527.288 358.553 512.269 344.211 494.94C363.333 489.163 381.261 481.076 396.798 471.834C417.714 459.125 435.642 443.529 449.984 425.621C459.545 431.398 470.302 436.019 482.851 439.485C498.986 443.529 518.109 445.839 540.817 445.839C663.323 445.839 684.238 379.409 684.238 281.208L684.238 40.3273L397.396 40.3273L397.396 212.468C397.396 292.761 381.261 351.682 310.148 370.745C304.77 372.477 298.196 373.633 292.22 374.788C289.83 360.347 289.232 345.328 289.232 330.309L289.232 -89.6445L793.597 -89.6445L793.597 330.309C793.597 461.436 712.923 576.389 541.415 576.389C482.254 576.389 434.446 562.525 396.798 539.997Z" fill="white"/>
</g>
<g opacity="0.4">
<path d="M252.182 507.293C286.245 507.293 316.722 502.671 344.211 494.584C363.334 488.808 381.262 480.721 396.799 471.478C417.714 458.77 435.642 443.173 449.984 425.266C463.729 409.092 474.485 390.607 482.852 370.967C497.194 337.463 504.365 300.493 504.365 261.79L504.365 39.9718L397.396 39.9718L397.396 212.112C397.396 292.406 381.262 351.326 310.149 370.389C304.77 372.122 298.197 373.277 292.221 374.433C280.269 376.166 267.122 377.321 252.182 377.321C129.677 377.321 108.761 310.891 108.761 212.69L108.761 39.9718L288.635 39.9718L288.635 -90L0 -90L4.19506e-06 261.79C5.75184e-06 392.34 80.6745 507.293 252.182 507.293Z" fill="white"/>
</g>
</g>
</svg>
