<svg width="1214" height="622" viewBox="0 0 1214 622" fill="none" xmlns="http://www.w3.org/2000/svg">
<path d="M1214 574C1214 590.802 1214 599.202 1210.73 605.62C1207.85 611.265 1203.26 615.854 1197.62 618.73C1191.2 622 1182.8 622 1166 622H60.7651C33.8734 622 20.4276 622 12.5753 616.347C5.72424 611.415 1.26831 603.824 0.300903 595.438C-0.807983 585.826 5.74548 574.086 18.8527 550.605L257.2 123.609C261.606 115.716 263.809 111.77 266.878 108.753C269.596 106.082 272.798 103.953 276.313 102.48C280.283 100.817 284.774 100.313 293.757 99.3044L1160.65 1.98944C1179.11 -0.083252 1188.34 -1.11963 1195.49 1.84308C1201.77 4.44507 1206.97 9.10065 1210.26 15.0478C1214 21.8195 1214 31.1096 1214 49.6899V574Z" fill="#042E6F"/>
</svg>
