<svg width="122" height="22" viewBox="0 0 122 22" fill="none" xmlns="http://www.w3.org/2000/svg">
<path d="M11.0226 0.206787L14.625 5.81543L21.0724 7.5084L16.8514 12.6677L17.2337 19.3227L11.0226 16.9026L4.81144 19.3227L5.19367 12.6677L0.972752 7.5084L7.42011 5.81543L11.0226 0.206787Z" fill="#FBA333"/>
<path d="M35.9303 0.206787L39.5327 5.81543L45.9801 7.5084L41.7592 12.6677L42.1414 19.3227L35.9303 16.9026L29.7192 19.3227L30.1014 12.6677L25.8805 7.5084L32.3278 5.81543L35.9303 0.206787Z" fill="#FBA333"/>
<path d="M60.8385 0.206787L64.4409 5.81543L70.8883 7.5084L66.6674 12.6677L67.0496 19.3227L60.8385 16.9026L54.6274 19.3227L55.0096 12.6677L50.7887 7.5084L57.236 5.81543L60.8385 0.206787Z" fill="#FBA333"/>
<path d="M85.7462 0.206787L89.3486 5.81543L95.796 7.5084L91.5751 12.6677L91.9573 19.3227L85.7462 16.9026L79.5351 19.3227L79.9173 12.6677L75.6964 7.5084L82.1437 5.81543L85.7462 0.206787Z" fill="#FBA333"/>
<path d="M110.654 0.207031L114.256 5.81568L120.704 7.50864L116.483 12.6679L116.865 19.3229L110.654 16.9029L104.443 19.3229L104.825 12.6679L100.604 7.50864L107.051 5.81568L110.654 0.207031Z" fill="#FBA333"/>
</svg>
