<svg width="134" height="16" viewBox="0 0 134 16" fill="none" xmlns="http://www.w3.org/2000/svg">
<path fill-rule="evenodd" clip-rule="evenodd" d="M123.934 4.21847L123.976 4.90438L123.277 4.82039C120.731 4.49843 118.506 3.40659 116.618 1.57285L115.694 0.662982L115.457 1.33489C114.953 2.83267 115.275 4.41445 116.324 5.4783C116.883 6.06621 116.758 6.1502 115.792 5.80025C115.457 5.68827 115.163 5.60428 115.135 5.64627C115.037 5.74426 115.373 7.01808 115.638 7.522C116.002 8.2219 116.744 8.90781 117.555 9.31375L118.24 9.6357L117.429 9.6497C116.646 9.6497 116.618 9.6637 116.702 9.95766C116.981 10.8675 118.087 11.8334 119.318 12.2533L120.185 12.5473L119.43 12.9952C118.31 13.6391 116.995 14.0031 115.68 14.0311C115.051 14.0451 114.533 14.1011 114.533 14.1431C114.533 14.283 116.24 15.0669 117.233 15.3749C120.213 16.2848 123.752 15.8928 126.41 14.339C128.299 13.2332 130.188 11.0355 131.069 8.90781C131.545 7.77397 132.02 5.70226 132.02 4.70841C132.02 4.0645 132.062 3.98051 132.846 3.21062C133.307 2.76268 133.741 2.27275 133.825 2.13277C133.965 1.86681 133.951 1.86681 133.237 2.10478C132.048 2.52472 131.88 2.46872 132.468 1.83881C132.902 1.39088 133.419 0.578994 133.419 0.341027C133.419 0.299033 133.209 0.369023 132.971 0.495006C132.72 0.634986 132.16 0.844956 131.74 0.970938L130.985 1.2089L130.299 0.74697C129.922 0.495005 129.39 0.215045 129.11 0.131057C128.397 -0.0649147 127.306 -0.0369187 126.662 0.187049C124.913 0.81696 123.808 2.44073 123.934 4.21847Z" fill="#0F001A"/>
</svg>
